<svg xmlns="http://www.w3.org/2000/svg" xmlns:xlink="http://www.w3.org/1999/xlink" viewBox="0 0 232 144" enable-background="new 0 0 232 144"><defs><path id="1" opacity=".9" d="m5.937 8.442v124.03h220.61v-124.03h-220.61m63.19 103.7c-19.267 0-34.943-15.677-34.943-34.947s15.675-34.947 34.943-34.947c19.27 0 34.947 15.677 34.947 34.947s-15.677 34.947-34.947 34.947m90.47 0c-19.267 0-34.943-15.677-34.943-34.947s15.675-34.947 34.943-34.947c19.27 0 34.947 15.677 34.947 34.947s-15.677 34.947-34.947 34.947"/><path id="2" opacity=".75" d="m116.37 63.44c2.77-16.191 14.226-29.409 29.399-34.705v-14h-117.61v115.26h117.61v-31.848c-15.173-5.296-26.629-18.514-29.398-34.708"/><path id="3" opacity=".5" d="m196.95 61.59v32.14h-49.91v18.46h58.26v-50.6z"/><path id="4" opacity=".4" d="m99.97 109.08c-.866 0-1.568-.702-1.568-1.568v-14.05c0-.866.702-1.568 1.568-1.568h69.28v-7.89h-69.28c-.866 0-1.568-.702-1.568-1.568v-14.05c0-.866.702-1.568 1.568-1.568h69.28v-36.496h-110.89c4.142 0 8.425 0 14.66 3.459 7.438 4.126 10.263 12.2 10.423 17.862.127 4.549-.448 8.302-.722 9.802 1.415.861 2.83 2.644 2.83 6.334 0 4.601-2.3 11.01-6.05 11.06-2.295 6.556-5.983 12.326-10.219 15.987v7.201l1.22 2.945c6.291 1.493 20.239 5.328 24.753 10.855 2.641 3.241 5.148 25.792 5.426 28.353l.011.1h68.55v-35.2h-69.28z"/><clipPath><use xlink:href="#4"/></clipPath><clipPath id="0"><use xlink:href="#3"/></clipPath><clipPath><use xlink:href="#1"/></clipPath><clipPath><use xlink:href="#2"/></clipPath></defs><g opacity=".75"><g fill="#231f20"><path opacity=".45" d="m86.55 126.11v-3.497h-12.374v-33.717h-16.437c-1.296 0-2.492-.457-3.432-1.215-1.251-1-2.047-2.547-2.047-4.264v-56.18c0-3.02-2.455-5.478-5.478-5.478-3.02 0-5.477 2.455-5.477 5.478v98.87c0 3.02-2.456 5.479-5.478 5.479h11.329 33.916c3.02 0 5.478-2.457 5.478-5.479"/><path opacity=".3" d="m68.749 42.865h-.056c-3.02 0-5.478 2.456-5.478 5.477v35.08c0 3.02-2.447 5.479-5.478 5.479h16.437v-40.56c-.0001-3.01-2.424-5.447-5.425-5.476"/></g><g opacity=".7" fill="#fff"><path d="m30.344 126.11c0 3.02 2.456 5.479 5.479 5.479 3.02 0 5.478-2.457 5.478-5.479v-4.571h-4.659v-1.373h4.659v-2.57h-4.659v-1.373h4.659v-2.57h-4.659v-1.373h4.659v-2.57h-4.659v-1.373h4.659v-2.569h-4.659v-1.373h4.659v-2.57h-4.659v-1.373h4.659v-2.57h-4.659v-1.373h4.659v-2.57h-4.659v-1.373h4.659v-10.05h-10.957v43.594"/><path d="m117.86 44.47c-1.069-1.07-2.471-1.604-3.873-1.604h-16.434v-15.62c0-1.402-.535-2.804-1.607-3.873-1.067-1.07-2.471-1.604-3.872-1.604h-5.479-39.82c3.02 0 5.478 2.455 5.478 5.478v56.18c0 1.717.796 3.26 2.047 4.264.94.757 2.136 1.215 3.432 1.215 3.03 0 5.478-2.456 5.478-5.479v-7.638h-4.712v-1.373h4.712v-2.57h-4.712v-1.373h4.712v-2.571h-4.712v-1.373h4.712v-2.571h-4.712v-1.374h4.712v-2.571h-4.712v-1.373h4.712v-2.57h-4.712v-1.373h4.712v-2.572h-4.712v-1.373h4.712v-2.407c0-.055.007-.108.008-.163h-4.721v-1.373h4.935c.295-1.01.873-1.895 1.642-2.572h-6.577v-1.373h10.08v.008c-.001 0-.021.002-.031.002.046-.0001.09-.007.136-.007h.056c3 .029 5.424 2.467 5.424 5.476v40.56 33.717h12.426 32.87v-74.28c.0001-1.402-.534-2.804-1.603-3.874m-59.36-13.435h32.702v1.373h-32.702v-1.373m0 3.943h32.702v1.373h-32.702v-1.373m0 5.317v-1.373h32.702v1.373h-32.702m21.968 20.909h20.246v17.15h-20.246v-17.15m32.702 52.64h-32.702v-1.373h32.702v1.373m0-3.944h-32.702v-1.373h32.702v1.373m0-3.943h-32.702v-1.373h32.702v1.373m0-3.944h-32.702v-1.373h32.702v1.373m0-3.944h-32.702v-1.373h32.702v1.373m0-3.943h-32.702v-1.373h32.702v1.373m0-3.944h-32.702v-1.373h32.702v1.373m0-3.943h-32.702v-1.373h32.702v1.373m0-3.944h-32.702v-1.373h32.702v1.373m0-3.944h-9.693v-1.373h9.693v1.373m0-3.943h-9.693v-1.373h9.693v1.373m0-3.944h-9.693v-1.373h9.693v1.373m0-3.944h-9.693v-1.373h9.693v1.373m0-3.943h-9.693v-1.373h9.693v1.373m0-4.63h-32.702v-3.944h32.702v3.944"/></g><path opacity=".3" fill="#231f20" d="m80.47 61.2h20.246v17.15h-20.246z"/></g><path opacity=".4" d="m138.69 93.06h58.26v.673h-58.26z"/><g fill="#fff"><path opacity=".85" d="m138.69 43.13v49.931h58.26v-49.931h-58.26m54.965 43.22h-.055-10.791-5.509-2.671-15.737-16.908-.055v-39.865h51.672v35.36l.055.055v4.446z"/><path opacity=".6" d="m157.37 69.09l9.392 9.392 4.09-4.089 9.204 9.203 7.646-7.646 5.9 5.899v-35.36h-51.672v39.865h.055v-1.875l15.385-15.385m22.629-15.01c.139 0 .275.014.406.044.283-1.111 1.293-1.933 2.493-1.933 1.419 0 2.571 1.152 2.571 2.572 0 .007 0 .012 0 .017.104-.022.211-.032.32-.032.852 0 1.544.692 1.544 1.544 0 .854-.692 1.544-1.544 1.544h-5.79c-1.036 0-1.878-.84-1.878-1.878 0-1.038.842-1.878 1.878-1.878m-14.562 8.86c.003 0 .004 0 .005 0-.0001-.051-.005-.105-.005-.156 0-3.038 2.461-5.498 5.498-5.498 2.481 0 4.579 1.646 5.262 3.904.416-.195.876-.304 1.365-.304 1.769 0 3.202 1.436 3.202 3.203 0 .409-.075.797-.214 1.157.035 0 .07-.007.106-.007 1.135 0 2.055.921 2.055 2.057 0 1.133-.92 2.053-2.055 2.053h-15.219c-1.77 0-3.204-1.436-3.204-3.205 0-1.77 1.434-3.204 3.204-3.204m-11.962-11.944c3.28 0 5.937 2.658 5.937 5.937 0 3.28-2.658 5.937-5.937 5.937-3.279 0-5.936-2.658-5.936-5.937 0-3.28 2.657-5.937 5.936-5.937"/><path opacity=".15" d="m170.85 74.39l-4.09 4.09 7.87 7.87h2.67l2.76-2.75z"/><circle opacity=".8" cx="153.48" cy="56.936" r="5.937"/><path opacity=".35" d="m180 57.839h5.79c.852 0 1.544-.69 1.544-1.544 0-.852-.692-1.544-1.544-1.544-.109 0-.216.001-.32.032 0-.005 0-.001 0-.017 0-1.42-1.152-2.572-2.571-2.572-1.2 0-2.21.822-2.493 1.933-.131-.031-.268-.044-.406-.044-1.036 0-1.878.84-1.878 1.878 0 1.038.842 1.878 1.878 1.878"/><path opacity=".2" d="m165.44 69.35h15.219c1.135 0 2.055-.919 2.055-2.053 0-1.135-.92-2.057-2.055-2.057-.036 0-.071.007-.106.007.139-.36.214-.748.214-1.157 0-1.768-1.433-3.203-3.202-3.203-.489 0-.949.109-1.365.304-.684-2.258-2.781-3.904-5.262-3.904-3.037 0-5.498 2.46-5.498 5.498 0 .051.004.105.005.156-.0001 0-.002 0-.005 0-1.77 0-3.204 1.433-3.204 3.203 0 1.77 1.434 3.206 3.204 3.206"/></g><path opacity=".2" d="m187.71 75.951l-7.65 7.649-2.76 2.75h5.51 10.79.06v-4.446l-.06-.054z"/><path opacity=".2" d="m157.37 69.09l-15.38 15.39v1.87h16.91 15.73l-7.87-7.87z"/><g opacity=".5"><g clip-path="url(#0)"><g fill="#fff"><path opacity=".85" d="m147.04 61.59v49.931h58.26v-49.931h-58.26m54.965 43.22h-.055-10.791-5.509-2.671-15.737-16.908-.055v-39.865h51.672v35.36l.055.055v4.446z"/><path opacity=".6" d="m165.72 87.55l9.392 9.392 4.09-4.089 9.204 9.203 7.646-7.646 5.9 5.899v-35.36h-51.672v39.865h.055v-1.875l15.385-15.386m22.629-15.01c.139 0 .275.014.406.044.283-1.111 1.293-1.933 2.493-1.933 1.419 0 2.571 1.152 2.571 2.572 0 .007 0 .012 0 .017.104-.022.211-.032.32-.032.852 0 1.544.692 1.544 1.544 0 .854-.692 1.544-1.544 1.544h-5.79c-1.036 0-1.878-.84-1.878-1.878 0-1.038.842-1.878 1.878-1.878m-14.562 8.86c.003 0 .004 0 .005 0-.0001-.051-.005-.105-.005-.156 0-3.038 2.461-5.498 5.498-5.498 2.481 0 4.579 1.646 5.262 3.904.416-.195.876-.304 1.365-.304 1.769 0 3.202 1.436 3.202 3.203 0 .409-.075.797-.214 1.157.035 0 .07-.007.106-.007 1.135 0 2.055.921 2.055 2.057 0 1.133-.92 2.053-2.055 2.053h-15.219c-1.77 0-3.204-1.436-3.204-3.205 0-1.77 1.434-3.204 3.204-3.204m-11.962-11.945c3.28 0 5.937 2.658 5.937 5.937 0 3.28-2.658 5.937-5.937 5.937-3.279 0-5.936-2.658-5.936-5.937 0-3.279 2.657-5.937 5.936-5.937"/><path opacity=".15" d="m179.2 92.85l-4.09 4.09 7.87 7.87h2.67l2.75-2.75z"/></g><path opacity=".2" d="m196.05 94.41l-7.65 7.65-2.75 2.75h5.51 10.79.05v-4.45l-.05-.05z"/><path opacity=".2" d="m165.72 87.55l-15.39 15.39v1.87h16.91 15.74l-7.87-7.87z"/></g></g></svg>