<svg xmlns="http://www.w3.org/2000/svg" xmlns:xlink="http://www.w3.org/1999/xlink" viewBox="0 0 232 144" enable-background="new 0 0 232 144"><defs><path id="0" opacity=".9" d="m5.937 8.442v124.03h220.61v-124.03h-220.61m63.19 103.7c-19.267 0-34.943-15.677-34.943-34.947s15.675-34.947 34.943-34.947c19.27 0 34.947 15.677 34.947 34.947s-15.677 34.947-34.947 34.947m90.47 0c-19.267 0-34.943-15.677-34.943-34.947s15.675-34.947 34.943-34.947c19.27 0 34.947 15.677 34.947 34.947s-15.677 34.947-34.947 34.947"/><path id="1" opacity=".75" d="m116.37 66.44c2.77-16.191 14.226-29.409 29.399-34.705v-14h-117.61v115.26h117.61v-31.848c-15.173-5.296-26.629-18.514-29.398-34.708"/><path id="2" opacity=".5" d="m196.95 61.59v32.14h-49.91v18.46h58.26v-50.6z"/><path id="3" opacity=".4" d="m99.97 109.08c-.866 0-1.568-.702-1.568-1.568v-14.05c0-.866.702-1.568 1.568-1.568h69.28v-7.89h-69.28c-.866 0-1.568-.702-1.568-1.568v-14.05c0-.866.702-1.568 1.568-1.568h69.28v-36.496h-110.89c4.142 0 8.425 0 14.66 3.459 7.438 4.126 10.263 12.2 10.423 17.862.127 4.549-.448 8.302-.722 9.802 1.415.861 2.83 2.644 2.83 6.334 0 4.601-2.3 11.01-6.05 11.06-2.295 6.556-5.983 12.326-10.219 15.987v7.201l1.22 2.945c6.291 1.493 20.239 5.328 24.753 10.855 2.641 3.241 5.148 25.792 5.426 28.353l.011.1h68.55v-35.2h-69.28z"/><clipPath><use xlink:href="#3"/></clipPath><clipPath><use xlink:href="#2"/></clipPath><clipPath><use xlink:href="#0"/></clipPath><clipPath><use xlink:href="#1"/></clipPath></defs><g opacity=".75"><path fill="#fff" d="m134.33 22.968c-.661-.662-1.529-.993-2.397-.993l-27.993.002c1.857.018 3.356 1.526 3.356 3.388v43.19h28.03v-43.19c.0001-.867-.33-1.734-.992-2.396m-23.14 8.508h12.527v10.61h-12.527v-10.61m20.234 30.13h-20.234v-.849h20.234v.849m0-2.44h-20.234v-.849h20.234v.849m0-2.44h-20.234v-.849h20.234v.849m0-2.44h-20.234v-.849h20.234v.849m0-2.44h-20.234v-.849h20.234v.849m0-2.44h-20.234v-.849h20.234v.849m0-2.44h-20.234v-.849h20.234v.849m0-2.44h-20.234v-.849h20.234v.849m0-2.44h-5.998v-.849h5.998v.849m0-2.44h-5.998v-.849h5.998v.849m0-2.44h-5.998v-.849h5.998v.849m0-2.44h-5.998v-.849h5.998v.849m0-2.441h-5.998v-.849h5.998v.849m0-2.864h-20.234v-2.44h20.234v2.44" opacity=".7"/><path opacity=".3" fill="#231f20" d="m111.2 31.476h12.527v10.61h-12.527z"/></g><path opacity=".3" fill="#231f20" d="m107.3 42.09v-16.72c0-1.862-1.499-3.37-3.356-3.388h-.035c-1.87 0-3.39 1.52-3.39 3.389v16.72h6.781z"/><path opacity=".4" d="m36.25 66.65h33.09v.382h-33.09z"/><g fill="#fff"><path opacity=".85" d="m36.25 38.29v28.363h33.09v-28.363h-33.09m31.22 24.552h-.031-6.13-3.129-1.517-8.939-9.604-.031v-22.645h29.352v20.09l.031.031v2.526z"/><path opacity=".6" d="m46.857 53.04l5.335 5.335 2.323-2.323 5.228 5.228 4.343-4.343 3.351 3.351v-20.09h-29.35v22.645h.031v-1.065l8.739-8.74m12.854-8.525c.079 0 .156.008.231.025.161-.631.734-1.098 1.416-1.098.806 0 1.46.654 1.46 1.461 0 .004 0 .007 0 .001.059-.013.12-.018.182-.018.484 0 .877.393.877.877 0 .485-.393.877-.877.877h-3.289c-.589 0-1.067-.477-1.067-1.067.0001-.589.479-1.067 1.067-1.067m-8.271 5.03c.002 0 .002 0 .002 0 0-.029-.002-.06-.002-.089 0-1.726 1.398-3.123 3.123-3.123 1.409 0 2.601.935 2.989 2.218.236-.111.498-.173.775-.173 1.01 0 1.819.815 1.819 1.82 0 .232-.043.453-.122.657.02 0 .04-.004.06-.004.644 0 1.167.523 1.167 1.168 0 .644-.523 1.166-1.167 1.166h-8.644c-1.01 0-1.82-.815-1.82-1.821-.0001-1.01.814-1.819 1.82-1.819m-6.795-6.786c1.863 0 3.373 1.51 3.373 3.373 0 1.863-1.51 3.373-3.373 3.373-1.862 0-3.372-1.51-3.372-3.373 0-1.863 1.509-3.373 3.372-3.373"/><path opacity=".15" d="m54.52 56.05l-2.33 2.32 4.472 4.473h1.518l1.564-1.563z"/><circle opacity=".8" cx="44.645" cy="46.13" r="3.373"/><path opacity=".35" d="m59.711 46.647h3.289c.484 0 .877-.392.877-.877 0-.484-.393-.877-.877-.877-.062 0-.123.006-.182.018 0-.003 0-.006 0-.001 0-.806-.654-1.461-1.46-1.461-.682 0-1.255.467-1.416 1.098-.075-.017-.152-.025-.231-.025-.589 0-1.067.477-1.067 1.067.0001.59.479 1.067 1.067 1.067"/><path opacity=".2" d="m51.44 53.19h8.645c.644 0 1.167-.522 1.167-1.166 0-.645-.523-1.168-1.167-1.168-.021 0-.04.004-.06.004.079-.204.122-.425.122-.657 0-1-.814-1.82-1.819-1.82-.278 0-.539.062-.775.173-.388-1.283-1.58-2.218-2.989-2.218-1.725 0-3.123 1.397-3.123 3.123 0 .029.002.06.003.089 0 0-.0001 0-.003 0-1.01 0-1.82.814-1.82 1.82-.002 1 .813 1.82 1.819 1.82"/></g><path opacity=".2" d="m64.09 56.935l-4.346 4.345-1.564 1.563h3.13 6.13.03v-2.523l-.03-.03z"/><path opacity=".2" d="m46.857 53.04l-8.737 8.738v1.065h9.602 8.94l-4.472-4.473z"/><g fill="#fff"><path opacity=".55" d="m35.436 37.498h31.25v-1.907h-33.09v28.363h1.84z"/><path opacity=".25" d="m32.699 34.761h31.25v-1.907h-33.09v28.366h1.84z"/></g><path opacity=".4" d="m163.81 68.55h31.385v.363h-31.385z"/><g fill="#fff"><path opacity=".85" d="m163.81 41.646v26.899h31.385v-26.899h-31.385m29.61 23.284h-.029-5.814-2.968-1.439-8.478-9.109-.029v-21.476h27.837v19.05l.029.029v2.396"/><path opacity=".6" d="m173.87 55.632l5.06 5.06 2.203-2.203 4.959 4.958 4.119-4.119 3.178 3.178v-19.05h-27.837v21.476h.029v-1.01l8.289-8.288m12.191-8.09c.075 0 .148.007.219.024.152-.599.696-1.041 1.343-1.041.764 0 1.385.621 1.385 1.385 0 .004 0 .006 0 .009.056-.012.114-.017.173-.017.459 0 .832.373.832.832 0 .46-.373.832-.832.832h-3.119c-.558 0-1.012-.453-1.012-1.012-.0001-.559.453-1.012 1.01-1.012m-7.845 4.773c.002 0 .002 0 .002 0 0-.028-.002-.057-.002-.084 0-1.637 1.326-2.962 2.962-2.962 1.337 0 2.467.886 2.835 2.103.224-.105.472-.164.735-.164.953 0 1.725.773 1.725 1.726 0 .22-.04.429-.115.623.019 0 .037-.004.057-.004.611 0 1.107.496 1.107 1.108 0 .611-.496 1.106-1.107 1.106h-8.199c-.953 0-1.726-.773-1.726-1.727 0-.952.772-1.725 1.726-1.725m-6.444-6.434c1.767 0 3.199 1.432 3.199 3.199 0 1.767-1.432 3.199-3.199 3.199-1.766 0-3.198-1.432-3.198-3.199 0-1.768 1.431-3.199 3.198-3.199"/><path opacity=".15" d="m181.13 58.49l-2.2 2.202 4.23 4.238h1.44l1.49-1.48z"/><circle opacity=".8" cx="171.77" cy="49.08" r="3.199"/><path opacity=".35" d="m186.06 49.571h3.119c.459 0 .832-.372.832-.832 0-.459-.373-.832-.832-.832-.059 0-.117.006-.173.017 0-.003 0-.006 0-.009 0-.765-.621-1.385-1.385-1.385-.646 0-1.19.443-1.343 1.041-.071-.017-.144-.024-.219-.024-.558 0-1.012.453-1.012 1.012.0001.559.455 1.012 1.013 1.012"/><path opacity=".2" d="m178.21 55.773h8.199c.611 0 1.107-.495 1.107-1.106 0-.612-.496-1.108-1.107-1.108-.02 0-.038.004-.057.004.075-.194.115-.403.115-.623 0-.952-.772-1.726-1.725-1.726-.263 0-.511.059-.735.164-.368-1.217-1.498-2.103-2.835-2.103-1.636 0-2.962 1.325-2.962 2.962 0 .028.002.057.003.084 0 0-.0001 0-.003 0-.953 0-1.726.772-1.726 1.726 0 .952.772 1.726 1.726 1.726"/></g><path opacity=".2" d="m190.21 59.33l-4.12 4.12-1.49 1.48h2.97 5.82.02v-2.4l-.02-.02z"/><path opacity=".2" d="m173.87 55.632l-8.29 8.288v1.01h9.11 8.47l-4.23-4.238z"/><g fill="#fff"><path opacity=".55" d="m196.1 40.646h-29.68v-1.811h31.42v26.936h-1.74z"/><path opacity=".25" d="m198.79 37.851h-29.68v-1.811h31.43v26.936h-1.75z"/></g><g opacity=".75"><path opacity=".3" fill="#231f20" d="m181.98 92.75h11.165v9.456h-11.165z"/></g><g fill="#fff"><path opacity=".5" d="m178.5 84.59v35.04h24.979v-35.04h-24.979m3.473 8.165h11.165v9.456h-11.165v-9.456m18.03 22.505h-18.03v-.757h18.03v.757m0-2.175h-18.03v-.757h18.03v.757m0-2.175h-18.03v-.757h18.03v.757m0-2.175h-18.03v-.757h18.03v.757m0-2.174h-18.03v-.757h18.03v.757m0-2.175h-18.03v-.757h18.03v.757m0-2.175h-5.345v-.757h5.345v.757m0-2.175h-5.345v-.757h5.345v.757m0-2.175h-5.345v-.757h5.345v.757m0-2.174h-5.345v-.757h5.345v.757m0-2.175h-5.345v-.757h5.345v.757m0-2.554h-18.03v-2.175h18.03v2.175"/><path opacity=".4" d="m180.36 82.74v.92h24.05v34.11h.93v-35.03z"/><path opacity=".3" d="m182.2 80.892v.918h24.06v34.12h.92v-35.04z"/></g><path opacity=".3" d="m151.75 144v-20.839c0-.463-.375-.838-.838-.838h-63.22c-.463 0-.838.375-.838.838v20.839h64.894m-41.614-14.569c0-.672.545-1.218 1.218-1.218h15.899c.672 0 1.218.545 1.218 1.218v2.164c0 .672-.545 1.218-1.218 1.218h-15.9c-.672 0-1.218-.545-1.218-1.218v-2.164z"/><path opacity=".4" fill="#fff" d="m74.63 82.33h-46.34c-.318 0-.575.258-.575.575v29.881c0 .318.258.575.575.575h46.34c.318 0 .575-.258.575-.575v-29.881c.0001-.318-.257-.575-.575-.575m-26.957 28.959c-.527 0-.955-.428-.955-.955 0-.527.428-.955.955-.955.527 0 .955.428.955.955 0 .528-.427.955-.955.955m3.82 0c-.527 0-.955-.428-.955-.955 0-.527.428-.955.955-.955.527 0 .955.428.955.955 0 .528-.427.955-.955.955m3.82 0c-.527 0-.955-.428-.955-.955 0-.527.428-.955.955-.955.527 0 .955.428.955.955 0 .528-.427.955-.955.955m17.728-3.701h-43.16v-23.09h43.16v23.09"/><path opacity=".3" d="m29.883 107.59h43.16v-23.09h-43.16v23.09m18.423-15.335c0-.207.218-.343.404-.251l7.571 3.726c.207.102.209.396.003.501l-7.571 3.845c-.186.095-.407-.041-.407-.25v-7.571"/><path opacity=".7" fill="#fff" d="m48.713 100.07l7.571-3.845c.206-.104.204-.399-.003-.501l-7.571-3.726c-.186-.092-.404.044-.404.251v7.571c0 .21.221.345.407.25"/><circle opacity=".1" cx="47.674" cy="110.33" r=".955"/><circle opacity=".1" cx="51.49" cy="110.33" r=".955"/><circle opacity=".1" cx="55.31" cy="110.33" r=".955"/><path fill="#fff" d="m129.17 95.75c-.704-.704-1.846-.704-2.551 0l-5.359 5.359v-15.02c0-.996-.807-1.804-1.804-1.804-.996 0-1.804.807-1.804 1.804v15.02l-5.359-5.359c-.704-.704-1.846-.704-2.551 0-.704.704-.704 1.846 0 2.551l8.438 8.438c.084.084.176.159.275.225.045.03.093.05.14.076.056.031.111.065.171.09.059.024.12.038.181.056.052.015.102.035.156.046.116.023.234.035.352.035 0 0 .0001 0 .0001 0 .118 0 .237-.012.353-.036.053-.011.103-.031.154-.046.061-.018.123-.032.182-.057.059-.025.113-.058.169-.089.047-.026.097-.047.142-.077.099-.066.191-.141.275-.224l8.438-8.438c.705-.704.705-1.846.0001-2.55"/><g opacity=".25" fill="none" stroke="#fff" stroke-linecap="round" stroke-width="2" stroke-miterlimit="10"><path d="m72.83 61.03c.641.211 1.272.43 1.894.657"/><path stroke-dasharray="4.1527 5.1909" d="m79.52 63.67c22.608 10.465 31.32 31.768 32.545 50.12"/><path d="m112.19 116.36c.02.671.029 1.338.029 1.999"/></g><g fill="none" stroke="#fff" stroke-linecap="round" stroke-width="2" stroke-miterlimit="10"><g opacity=".25"><path d="m78.2 93.65c.675.07 1.336.154 1.984.252"/><path stroke-dasharray="4.451 5.5638" d="m85.61 95.13c9.797 3.03 15.679 9.797 18.347 18.583"/><path d="m104.66 116.4c.143.645.271 1.3.383 1.963"/></g><g opacity=".25"><path d="m175.63 91.96c-.677 0-1.344.008-2 .024"/><path stroke-dasharray="3.9587 4.9483" d="m168.68 92.27c-18.426 1.707-27.61 10.383-33.376 22.02"/><path d="m134.25 116.53c-.27.605-.533 1.218-.789 1.836"/></g><g opacity=".25"><path d="m159.82 62.37c-.583.331-1.159.668-1.726 1.01"/><path stroke-dasharray="3.77 4.7125" d="m154.15 65.965c-15.964 11.257-24.716 28.04-27.463 48.07"/><path d="m126.39 116.37c-.074.66-.142 1.323-.204 1.99"/></g><g opacity=".25"><path d="m119.34 71.32v2"/><path stroke-dasharray="4.1995 5.2493" d="m119.34 78.57v35.17"/><path d="m119.34 116.36v2"/></g></g></svg>