<svg xmlns="http://www.w3.org/2000/svg" xmlns:xlink="http://www.w3.org/1999/xlink" viewBox="0 0 232 144" enable-background="new 0 0 232 144"><defs><path id="1" opacity=".9" d="m5.937 8.442v124.03h220.61v-124.03h-220.61m63.19 103.7c-19.267 0-34.943-15.677-34.943-34.947s15.675-34.947 34.943-34.947c19.27 0 34.947 15.677 34.947 34.947s-15.677 34.947-34.947 34.947m90.47 0c-19.267 0-34.943-15.677-34.943-34.947s15.675-34.947 34.943-34.947c19.27 0 34.947 15.677 34.947 34.947s-15.677 34.947-34.947 34.947"/><path id="2" opacity=".75" d="m116.37 66.44c2.77-16.191 14.226-29.409 29.399-34.705v-14h-117.61v115.26h117.61v-31.848c-15.173-5.296-26.629-18.514-29.398-34.708"/><path id="3" opacity=".5" d="m196.95 61.59v32.14h-49.91v18.46h58.26v-50.6z"/><path id="4" opacity=".4" d="m99.97 109.08c-.866 0-1.568-.702-1.568-1.568v-14.05c0-.866.702-1.568 1.568-1.568h69.28v-7.89h-69.28c-.866 0-1.568-.702-1.568-1.568v-14.05c0-.866.702-1.568 1.568-1.568h69.28v-36.496h-110.89c4.142 0 8.425 0 14.66 3.459 7.438 4.126 10.263 12.2 10.423 17.862.127 4.549-.448 8.302-.722 9.802 1.415.861 2.83 2.644 2.83 6.334 0 4.601-2.3 11.01-6.05 11.06-2.295 6.556-5.983 12.326-10.219 15.987v7.201l1.22 2.945c6.291 1.493 20.239 5.328 24.753 10.855 2.641 3.241 5.148 25.792 5.426 28.353l.011.1h68.55v-35.2h-69.28z"/><clipPath><use xlink:href="#4"/></clipPath><clipPath><use xlink:href="#3"/></clipPath><clipPath><use xlink:href="#1"/></clipPath><clipPath id="0"><use xlink:href="#2"/></clipPath></defs><g opacity=".75"><g clip-path="url(#0)"><g fill="#231f20"><path opacity=".45" d="m91.75 125.31v-3.422h-12.11v-32.993h-16.08c-1.269 0-2.439-.447-3.358-1.189-1.224-.983-2-2.493-2-4.173v-54.973c0-2.957-2.402-5.36-5.36-5.36-2.957 0-5.359 2.403-5.359 5.36v96.75c0 2.957-2.403 5.361-5.36 5.361h11.09 33.19c2.954 0 5.358-2.404 5.358-5.361"/><path opacity=".3" d="m74.34 43.845h-.055c-2.957 0-5.36 2.403-5.36 5.36v34.33c0 2.958-2.394 5.361-5.36 5.361h16.08v-39.69c-.0001-2.944-2.372-5.329-5.309-5.358"/></g><g opacity=".7" fill="#fff"><path d="m36.756 125.31c0 2.957 2.403 5.361 5.362 5.361 2.957 0 5.36-2.404 5.36-5.361v-4.473h-4.558v-1.343h4.559v-2.515h-4.559v-1.343h4.559v-2.515h-4.559v-1.343h4.559v-2.515h-4.559v-1.343h4.559v-2.514h-4.559v-1.343h4.559v-2.515h-4.559v-1.346h4.559v-2.515h-4.559v-1.343h4.559v-2.515h-4.559v-1.343h4.559v-9.834h-10.723v42.658"/><path d="m122.4 45.41c-1.046-1.047-2.418-1.57-3.79-1.57h-16.08v-15.284c0-1.372-.523-2.744-1.573-3.79-1.044-1.047-2.418-1.57-3.789-1.57h-5.362-38.964c2.958 0 5.36 2.403 5.36 5.36v54.974c0 1.68.779 3.19 2 4.173.92.741 2.09 1.189 3.358 1.189 2.966 0 5.36-2.403 5.36-5.361v-7.474h-4.611v-1.343h4.611v-2.515h-4.611v-1.343h4.611v-2.516h-4.611v-1.343h4.611v-2.519h-4.611v-1.343h4.611v-2.516h-4.611v-1.343h4.611v-2.515h-4.611v-1.343h4.611v-2.517h-4.611v-1.343h4.611v-2.355c0-.054.006-.106.008-.159h-4.619v-1.343h4.829c.289-.987.854-1.854 1.607-2.517h-6.436v-1.343h9.869v.007c-.001 0-.02.002-.03.002.045-.0001.088-.007.133-.007h.055c2.936.029 5.308 2.414 5.308 5.358v39.689 32.993h12.159 32.16v-72.68c.0001-1.371-.523-2.743-1.57-3.79m-58.09-13.147h32v1.343h-32v-1.343m0 3.859h32v1.343h-32v-1.343m0 5.203v-1.343h32v1.343h-32m21.497 20.46h19.812v16.779h-19.812v-16.779m32 51.51h-32v-1.343h32v1.343m0-3.859h-32v-1.343h32v1.343m0-3.859h-32v-1.343h32v1.343m0-3.859h-32v-1.343h32v1.343m0-3.859h-32v-1.343h32v1.343m0-3.859h-32v-1.343h32v1.343m0-3.859h-32v-1.343h32v1.343m0-3.859h-32v-1.344h32v1.344m0-3.859h-32v-1.343h32v1.343m0-3.859h-9.485v-1.343h9.485v1.343m0-3.859h-9.485v-1.343h9.485v1.343m0-3.859h-9.485v-1.343h9.485v1.343m0-3.859h-9.485v-1.343h9.485v1.343m0-3.859h-9.485v-1.343h9.485v1.343m0-4.531h-32v-3.859h32v3.859"/></g><path opacity=".3" fill="#231f20" d="m85.81 61.787h19.812v16.779h-19.812z"/></g></g><g fill="#231f20"><path opacity=".25" d="m160.53 29.24c-22.16 0-40.548 16.08-44.16 37.2 3.614 21.13 22.01 37.21 44.16 37.21 22.16 0 40.544-16.08 44.16-37.21-3.62-21.12-22-37.2-44.16-37.2m0 58.657c-18.332 0-34.34-8.631-42.9-21.455 8.559-12.814 24.568-21.445 42.9-21.445 18.327 0 34.34 8.631 42.906 21.445-8.564 12.824-24.579 21.455-42.906 21.455"/><path opacity=".2" d="m151.72 45.677c.857-.133 1.722-.246 2.594-.341-.872.094-1.737.207-2.594.341"/><path opacity=".2" d="m148.73 46.22c.877-.186 1.765-.347 2.66-.492-.895.145-1.783.307-2.66.492"/><path opacity=".2" d="m157.73 45.07c.926-.045 1.857-.073 2.796-.073-.939 0-1.87.028-2.796.073"/><path opacity=".2" d="m163.06 87.83c-.284.012-.568.028-.853.037.285-.009.568-.025.853-.037"/><path opacity=".2" d="m154.74 45.29c.871-.088 1.749-.159 2.633-.207-.884.048-1.761.119-2.633.207"/><path opacity=".2" d="m165.03 87.72c-.393.031-.786.062-1.181.085.395-.023.788-.054 1.181-.085"/><path opacity=".2" d="m140.58 48.623c.831-.317 1.673-.615 2.527-.893-.854.278-1.696.576-2.527.893"/><path opacity=".2" d="m157.2 87.8c-.394-.023-.786-.053-1.178-.084.391.03.783.061 1.178.084"/><path opacity=".2" d="m152.4 87.32c-.523-.075-1.043-.157-1.561-.246.518.088 1.038.171 1.561.246"/><path opacity=".2" d="m155.58 87.68c-.46-.04-.918-.087-1.375-.138.457.05.914.098 1.375.138"/><path opacity=".2" d="m160.53 44.996c.939 0 1.871.028 2.798.073-.927-.045-1.858-.073-2.798-.073"/><path opacity=".2" d="m143.27 47.678c1.76-.567 3.567-1.052 5.416-1.445-1.85.393-3.656.878-5.416 1.445"/><path opacity=".2" d="m137.93 49.716c.821-.365 1.657-.71 2.504-1.036-.847.326-1.683.671-2.504 1.036"/><path opacity=".2" d="m158.85 87.87c-.287-.008-.571-.024-.857-.037.286.013.57.029.857.037"/><path opacity=".2" d="m153.98 87.52c-.5-.058-.998-.122-1.494-.193.495.07.993.135 1.494.193"/><path opacity=".2" d="m177.94 47.73c.855.279 1.699.577 2.531.895-.833-.318-1.676-.617-2.531-.895"/><path opacity=".2" d="m172.37 46.23c1.85.394 3.658.879 5.42 1.447-1.762-.568-3.57-1.054-5.42-1.447"/><path opacity=".2" d="m168.57 87.33c-.496.071-.995.135-1.496.193.501-.057 1-.122 1.496-.193"/></g><path fill="#fff" d="m203.43 66.44c-5.221-7.813-13.216-14.07-22.812-17.76.848.326 1.684.671 2.506 1.037 2.41 3.982 3.797 8.651 3.797 13.643 0 9.938-5.493 18.584-13.605 23.09 12.829-2.965 23.617-10.276 30.11-20"/><path opacity=".2" fill="#231f20" d="m173.32 86.45c-1.526.353-3.082.644-4.662.871 1.581-.226 3.135-.519 4.662-.871"/><path fill="#fff" d="m134.13 63.36c0-4.993 1.389-9.662 3.799-13.645-8.482 3.774-15.545 9.601-20.303 16.725 7.01 10.504 19.02 18.19 33.21 20.63-1.044-.18-2.077-.388-3.097-.624-8.112-4.501-13.608-13.148-13.608-23.09"/><g fill="#231f20"><path opacity=".2" d="m166.85 87.54c-.457.051-.916.098-1.377.138.461-.039.92-.087 1.377-.138"/><path opacity=".2" d="m169.66 45.731c.896.145 1.784.307 2.662.493-.877-.186-1.766-.348-2.662-.493"/><path opacity=".2" d="m166.74 45.34c.872.095 1.738.208 2.595.341-.858-.133-1.723-.247-2.595-.341"/><path opacity=".2" d="m163.68 45.09c.885.048 1.763.119 2.634.207-.872-.088-1.749-.159-2.634-.207"/></g><g fill="#b9db92"><path d="m165.47 87.68c-.147.013-.295.021-.442.033.148-.012.296-.02.442-.033"/><path d="m156.03 87.72c-.148-.012-.296-.02-.444-.033.147.013.296.022.444.033"/><path d="m163.85 87.8c-.264.015-.53.024-.795.035.265-.011.531-.019.795-.035"/><path d="m160.53 87.9c-.561 0-1.119-.009-1.675-.025.556.016 1.114.025 1.675.025"/><path d="m162.2 87.87c-.556.016-1.115.025-1.676.025.561 0 1.12-.009 1.676-.025"/><path d="m158 87.83c-.264-.012-.529-.02-.793-.035.264.015.529.023.793.035"/><path d="m168.66 87.32c-.028.004-.057.007-.085.011.028-.004.057-.007.085-.011"/><path d="m167.08 87.52c-.074.009-.15.015-.224.023.074-.008.149-.014.224-.023"/><path d="m166.31 45.29c.141.014.283.028.424.044-.141-.016-.282-.03-.424-.044"/><path d="m169.33 45.677c.111.017.221.036.331.054-.11-.018-.22-.037-.331-.054"/><path d="m163.33 45.07c.118.006.236.009.354.016-.118-.007-.236-.001-.354-.016"/><path d="m157.37 45.09c.118-.006.238-.001.356-.016-.118.006-.237.009-.356.016"/><path d="m172.33 46.22c.014.003.027.006.041.009-.014-.003-.027-.006-.041-.009"/><path d="m154.21 87.55c-.075-.008-.151-.015-.225-.023.075.008.15.015.225.023"/><path d="m154.32 45.34c.141-.015.283-.03.424-.044-.142.014-.283.028-.424.044"/><path d="m177.79 47.68c.052.017.105.033.157.05-.053-.017-.105-.033-.157-.05"/><path d="m180.47 48.624c.049.019.098.038.146.056-.048-.018-.097-.037-.146-.056"/><path d="m150.84 87.07c0 0-.002 0-.003 0 .002 0 .003 0 .003 0"/><path d="m152.49 87.33c-.029-.004-.058-.007-.086-.012.028.005.057.008.086.012"/><path d="m151.39 45.731c.111-.018.223-.037.334-.055-.112.018-.223.037-.334.055"/><path d="m140.44 48.68c.05-.019.099-.038.148-.057-.049.019-.099.038-.148.057"/><path d="m148.69 46.23c.014-.003.028-.007.043-.001-.015.003-.029.007-.043.001"/><path d="m143.11 47.73c.053-.017.107-.034.161-.051-.054.017-.108.033-.161.051"/></g><path opacity=".5" fill="#fff" d="m183.13 49.717c-.822-.366-1.658-.71-2.506-1.037-.049-.019-.097-.038-.146-.056-.832-.318-1.676-.616-2.531-.895-.052-.017-.105-.033-.157-.05-1.762-.568-3.57-1.053-5.42-1.447-.014-.003-.027-.006-.041-.009-.878-.186-1.767-.348-2.662-.493-.111-.018-.221-.037-.331-.054-.857-.134-1.723-.247-2.595-.341-.141-.015-.282-.029-.424-.044-.872-.088-1.749-.159-2.634-.207-.118-.006-.236-.001-.354-.016-.926-.045-1.858-.073-2.798-.073-.939 0-1.87.028-2.796.073-.119.006-.238.009-.356.016-.885.048-1.762.119-2.633.207-.142.014-.283.029-.424.044-.872.095-1.737.208-2.594.341-.112.017-.223.037-.334.055-.895.145-1.783.306-2.66.492-.014.003-.028.007-.043.001-1.848.393-3.655.878-5.416 1.445-.054.017-.108.034-.161.051-.854.278-1.697.576-2.527.893-.05.019-.099.038-.148.057-.847.326-1.682.67-2.504 1.036-2.41 3.982-3.799 8.652-3.799 13.645 0 9.939 5.496 18.585 13.609 23.09 1.02.236 2.052.444 3.097.624.0001 0 .002 0 .002 0 .518.089 1.039.171 1.562.247.029.004.058.007.086.012.496.07.994.135 1.494.193.075.009.15.015.225.023.457.051.914.098 1.375.138.147.013.296.021.444.033.392.031.784.061 1.178.084.263.015.528.023.793.035.286.013.57.028.857.037.556.016 1.114.025 1.675.025.561 0 1.119-.009 1.676-.025.286-.008.569-.024.853-.037.265-.012.531-.02.795-.035.395-.023.788-.054 1.181-.085.147-.012.295-.02.442-.033.461-.04.919-.087 1.377-.138.074-.008.15-.015.224-.023.501-.058 1-.122 1.496-.193.028-.004.057-.007.085-.011 1.58-.227 3.135-.519 4.662-.871h.0001c8.112-4.501 13.605-13.147 13.605-23.09-.003-4.993-1.39-9.662-3.8-13.644m-22.599 27.42c-7.595 0-13.768-6.177-13.768-13.776 0-7.6 6.173-13.771 13.768-13.771 7.601 0 13.771 6.171 13.771 13.771 0 7.598-6.17 13.776-13.771 13.776"/><path opacity=".65" fill="#231f20" d="m160.53 49.589c-7.595 0-13.768 6.171-13.768 13.771 0 7.599 6.173 13.776 13.768 13.776 7.601 0 13.771-6.177 13.771-13.776 0-7.6-6.17-13.771-13.771-13.771m-1.923 11.854c-1.434 1.439-3.58 1.645-4.771.449-1.199-1.199-.999-3.333.448-4.784 1.439-1.439 3.573-1.644 4.772-.442 1.199 1.196 1 3.336-.449 4.777"/><path fill="#fff" d="m154.28 57.11c-1.446 1.451-1.647 3.585-.448 4.784 1.192 1.196 3.337.99 4.771-.449 1.451-1.44 1.648-3.581.449-4.776-1.199-1.204-3.332-.998-4.772.441"/></svg>