<svg xmlns="http://www.w3.org/2000/svg" viewBox="0 0 232 144"><path d="M29.2 114.2h-6.8l6.8-8.1v8.1zm60 0H96l-6.8-8.1v8.1z" opacity=".55"/><path d="M100.3 116.3L89.2 103v3.1l6.8 8.1H22.3l6.9-8.1V103L18 116.3z" opacity=".35"/><path d="M18 116.3v27.6h82.3v-27.6H18zm53.3 13c0 .6-.5 1.1-1.1 1.1h-22c-.6 0-1.1-.5-1.1-1.1V123c0-.6.5-1.1 1.1-1.1h22c.6 0 1.1.5 1.1 1.1v6.3z" opacity=".25"/><path d="M70.2 128.4h-22c-.6 0-1.1-.5-1.1-1.1v2c0 .6.5 1.1 1.1 1.1h22c.6 0 1.1-.5 1.1-1.1v-2c0 .6-.5 1.1-1.1 1.1z" opacity=".35"/><path fill="#FFF" d="M70.2 121.9h-22c-.6 0-1.1.5-1.1 1.1v4.3c0 .6.5 1.1 1.1 1.1h22c.6 0 1.1-.5 1.1-1.1V123c0-.6-.5-1.1-1.1-1.1zM87.5 63.8H30.9c-.9 0-1.7.8-1.7 1.7v48.7h60V65.5c0-.9-.8-1.7-1.7-1.7zM36.2 81.1h24.4V98H36.2V81.1zm46 27h-46v-1.8h46v1.8zm0-5h-46v-1.8h46v1.8zm0-5.1H63.9v-1.8h18.3V98zm0-5H63.9v-1.8h18.3V93zm0-5.1H63.9v-1.8h18.3v1.8zm0-5.1H63.9V81h18.3v1.8zm0-5.9h-46v-5.1h46v5.1z" opacity=".5"/><path d="M36.2 81.1h24.4V98H36.2z" opacity=".25"/><path fill="#FFF" d="M30.8 62.4h56.6c.6 0 1.2.2 1.7.5v-.3c0-.9-.8-1.7-1.7-1.7H30.8c-.9 0-1.7.8-1.7 1.7v.3c.6-.3 1.1-.5 1.7-.5z" opacity=".4"/><path fill="#FFF" d="M30.8 59.5h56.6c.6 0 1.2.2 1.7.5v-.3c0-.9-.8-1.7-1.7-1.7H30.8c-.9 0-1.7.8-1.7 1.7v.3c.6-.3 1.1-.5 1.7-.5z" opacity=".3"/><g opacity=".9"><path d="M165.1 89.8h-5l5-5.9v5.9zm43.5 0h5l-5-5.9v5.9z" opacity=".55"/><path d="M216.7 91.3l-8.1-9.7v2.3l5 5.9h-53.5l5-5.9v-2.3l-8.1 9.7z" opacity=".35"/><path d="M157 91.3v20.5c0 .7.5 1.2 1.2 1.2h57.3c.7 0 1.2-.5 1.2-1.2V91.3H157zm38.7 9.5c0 .5-.4.8-.8.8h-16c-.5 0-.8-.4-.8-.8v-4.6c0-.5.4-.8.8-.8h16c.5 0 .8.4.8.8v4.6z" opacity=".25"/><path d="M194.9 100.1h-16c-.5 0-.8-.4-.8-.8v1.5c0 .5.4.8.8.8h16c.5 0 .8-.4.8-.8v-1.5c0 .4-.4.8-.8.8z" opacity=".35"/><path fill="#FFF" d="M194.9 95.4h-16c-.5 0-.8.4-.8.8v3.1c0 .5.4.8.8.8h16c.5 0 .8-.4.8-.8v-3.1c0-.5-.4-.8-.8-.8zM207.4 53.2h-41.1c-.7 0-1.2.5-1.2 1.2v35.3h43.5V54.5c0-.7-.5-1.3-1.2-1.3zm-37.2 12.6h17.7V78h-17.7V65.8zm33.4 19.6h-33.4v-1.3h33.4v1.3zm0-3.7h-33.4v-1.3h33.4v1.3zm0-3.7h-13.3v-1.3h13.3V78zm0-3.6h-13.3v-1.3h13.3v1.3zm0-3.7h-13.3v-1.3h13.3v1.3zm0-3.7h-13.3v-1.3h13.3V67zm0-4.3h-33.4V59h33.4v3.7z" opacity=".5"/><path d="M170.2 65.8h17.7v12.3h-17.7z" opacity=".25"/><path fill="#FFF" d="M166.3 52.2h41.1c.5 0 .9.1 1.2.4v-.2c0-.7-.5-1.2-1.2-1.2h-41.1c-.7 0-1.2.5-1.2 1.2v.2c.4-.3.8-.4 1.2-.4z" opacity=".4"/><path fill="#FFF" d="M166.3 50.1h41.1c.5 0 .9.1 1.2.4v-.2c0-.7-.5-1.2-1.2-1.2h-41.1c-.7 0-1.2.5-1.2 1.2v.2c.4-.3.8-.4 1.2-.4z" opacity=".3"/></g><g opacity=".7"><path d="M107.2 36.4H104l3.2-3.8v3.8zm28.2 0h3.2l-3.2-3.8v3.8z" opacity=".55"/><path d="M140.6 37.3l-5.2-6.2v1.4l3.2 3.9H104l3.2-3.9v-1.4l-5.2 6.2z" opacity=".35"/><path d="M102 37.3v13.3c0 .4.4.8.8.8h37c.4 0 .8-.4.8-.8V37.3H102zm25 6.1c0 .3-.2.5-.5.5h-10.3c-.3 0-.5-.2-.5-.5v-3c0-.3.2-.5.5-.5h10.3c.3 0 .5.2.5.5v3z" opacity=".25"/><path d="M126.5 43h-10.3c-.3 0-.5-.2-.5-.5v1c0 .3.2.5.5.5h10.3c.3 0 .5-.2.5-.5v-1c0 .3-.3.5-.5.5z" opacity=".35"/><path fill="#FFF" d="M126.5 39.9h-10.3c-.3 0-.5.2-.5.5v2c0 .3.2.5.5.5h10.3c.3 0 .5-.2.5-.5v-2c0-.2-.3-.5-.5-.5zM134.6 12.7H108c-.4 0-.8.4-.8.8v22.8h28.1V13.5c.1-.4-.3-.8-.7-.8zm-24.1 8.1H122v7.9h-11.5v-7.9zm21.6 12.7h-21.6v-.8h21.6v.8zm0-2.4h-21.6v-.8h21.6v.8zm0-2.3h-8.6V28h8.6v.8zm0-2.4h-8.6v-.8h8.6v.8zm0-2.4h-8.6v-.8h8.6v.8zm0-2.4h-8.6v-.8h8.6v.8zm0-2.7h-21.6v-2.4h21.6v2.4z" opacity=".5"/><path d="M110.5 20.8H122v7.9h-11.5z" opacity=".25"/><path fill="#FFF" d="M108 12.1h26.5c.3 0 .6.1.8.2v-.1c0-.4-.4-.8-.8-.8H108c-.4 0-.8.4-.8.8v.1c.3-.1.5-.2.8-.2z" opacity=".4"/><path fill="#FFF" d="M108 10.7h26.5c.3 0 .6.1.8.2v-.1c0-.4-.4-.8-.8-.8H108c-.4 0-.8.4-.8.8v.1c.3-.1.5-.2.8-.2z" opacity=".3"/></g><path fill="#FFF" d="M61.9 56.6c-.1 0-.3 0-.4-.1-.7-.2-1-1-.8-1.7.4-1.3.9-2.6 1.5-3.8.3-.7 1-1 1.7-.7.7.3 1 1 .7 1.7-.5 1.2-1 2.4-1.4 3.7-.2.5-.7.9-1.3.9zm3.6-8.3c-.2 0-.4 0-.6-.2-.6-.3-.9-1.1-.5-1.8.6-1.2 1.3-2.4 2-3.5.4-.6 1.2-.8 1.8-.4.6.4.8 1.2.4 1.8-.7 1.1-1.3 2.2-1.9 3.4-.3.5-.7.7-1.2.7zm4.8-7.6c-.3 0-.5-.1-.8-.3-.6-.4-.7-1.2-.3-1.8.8-1.1 1.7-2.2 2.5-3.2.5-.5 1.3-.6 1.8-.1s.6 1.3.1 1.8c-.8 1-1.7 2-2.4 3.1-.1.3-.5.5-.9.5zm5.9-6.8c-.3 0-.7-.1-.9-.4-.5-.5-.5-1.3 0-1.8 1-1 2-1.9 3-2.8.5-.5 1.4-.4 1.8.1.5.5.4 1.4-.1 1.8-1 .9-2 1.7-2.9 2.7-.3.3-.6.4-.9.4zm6.8-5.8c-.4 0-.8-.2-1.1-.5-.4-.6-.3-1.4.3-1.8 1.1-.8 2.2-1.6 3.4-2.3.6-.4 1.4-.2 1.8.4.4.6.2 1.4-.4 1.8-1.1.7-2.2 1.4-3.2 2.2-.2.1-.5.2-.8.2zm7.7-4.7c-.5 0-.9-.3-1.2-.7-.3-.6-.1-1.4.6-1.8 1.2-.6 2.4-1.2 3.7-1.8.7-.3 1.4 0 1.7.7.3.7 0 1.4-.7 1.7-1.2.5-2.4 1.1-3.5 1.7-.2.1-.4.2-.6.2zm8.3-3.5c-.5 0-1-.3-1.2-.9-.2-.7.1-1.4.8-1.6l3.9-1.2c.7-.2 1.4.2 1.6.9.2.7-.2 1.4-.9 1.6-1.3.3-2.5.7-3.7 1.1-.3 0-.4.1-.5.1z" opacity=".3"/><g fill="#FFF" opacity=".7"><path d="M160 115.2l-7.9-1.4c-.7-.1-1.3.3-1.4 1-.1.7.3 1.3 1 1.4l4.9.9c-.9.8-1.9 1.7-2.8 2.4-.6.4-.6 1.3-.2 1.8.3.3.6.5 1 .5.3 0 .6-.1.8-.3.9-.7 1.8-1.5 2.7-2.3l-.8 4.8c-.1.7.3 1.3 1 1.4.7.1 1.3-.3 1.4-1l1.4-7.9c0-.6-.4-1.2-1.1-1.3zM107.9 131.3c-1.3-.2-2.5-.5-3.8-.8-.7-.2-1.4.3-1.6 1-.2.7.3 1.4 1 1.6 1.3.3 2.6.6 3.9.8h.2c.6 0 1.2-.4 1.3-1.1.2-.7-.3-1.4-1-1.5zM125.4 131.6c-1.3.2-2.6.3-3.9.4-.7 0-1.3.7-1.2 1.4 0 .7.6 1.2 1.3 1.2h.1c1.4-.1 2.7-.2 4.1-.4.7-.1 1.2-.7 1.1-1.5-.1-.7-.8-1.2-1.5-1.1zM116.7 132.1c-1.3 0-2.6-.1-3.9-.2-.7-.1-1.3.5-1.4 1.2-.1.7.5 1.3 1.2 1.4 1.3.1 2.7.2 4.1.2.7 0 1.3-.6 1.3-1.3-.1-.6-.6-1.2-1.3-1.3zM149.9 122.4l-3.3 2.1c-.6.4-.8 1.2-.5 1.8.2.4.7.6 1.1.6.2 0 .4-.1.7-.2 1.2-.7 2.3-1.4 3.5-2.2.6-.4.8-1.2.4-1.8-.5-.6-1.3-.7-1.9-.3zM142.2 126.7c-1.2.6-2.4 1.1-3.6 1.5-.7.3-1 1-.7 1.7.2.5.7.8 1.2.8.2 0 .3 0 .5-.1 1.3-.5 2.5-1 3.8-1.6.6-.3.9-1.1.6-1.7-.3-.6-1.1-.9-1.8-.6zM134 129.8c-1.2.4-2.5.7-3.8 1-.7.2-1.1.8-1 1.6.1.6.7 1 1.3 1h.3c1.3-.3 2.7-.6 4-1 .7-.2 1.1-.9.9-1.6-.3-.8-1-1.2-1.7-1z"/></g><g fill="#FFF" opacity=".7"><path d="M155.6 27.6c-.6-.5-1.4-.4-1.8.2-.5.6-.4 1.4.2 1.8 1 .8 2 1.7 3 2.6.3.2.6.3.9.3.3 0 .7-.1 1-.4.5-.5.5-1.3-.1-1.8-1.1-1-2.2-1.9-3.2-2.7zM148 22.4c-.6-.4-1.4-.2-1.8.5-.4.6-.2 1.4.5 1.8 1.1.6 2.2 1.4 3.3 2.1.2.2.5.2.7.2.4 0 .8-.2 1.1-.6.4-.6.2-1.4-.3-1.8-1.2-.8-2.3-1.6-3.5-2.2zM147.2 16c-.2-.6-.8-1-1.5-.8l-7.7 2.2c-.6.2-1 .8-.8 1.5l2.2 7.7c.2.6.8 1 1.5.8.6-.2 1-.8.8-1.5l-1.2-4.4c.6.3 1.3.6 1.9.9.2.1.4.1.6.1.5 0 1-.3 1.2-.7.3-.6 0-1.4-.6-1.7-.8-.4-1.6-.7-2.4-1.1l5.2-1.5c.6-.2 1-.9.8-1.5zM170.1 44.6c-.7-1.2-1.4-2.3-2.1-3.5-.4-.6-1.2-.8-1.8-.4-.6.4-.8 1.2-.4 1.8l2.1 3.3c.2.4.7.7 1.1.7.2 0 .4-.1.6-.2.6-.3.8-1.1.5-1.7zM162.2 33.9c-.5-.5-1.3-.6-1.8-.1s-.6 1.3-.1 1.8c.9 1 1.7 2 2.5 3 .3.3.6.5 1 .5.3 0 .6-.1.8-.3.6-.4.7-1.3.2-1.8-.7-1.1-1.6-2.1-2.6-3.1z"/></g></svg>