<?xml version="1.0" encoding="utf-8"?>
<!-- Generator: Adobe Illustrator 22.0.0, SVG Export Plug-In . SVG Version: 6.00 Build 0)  -->
<svg version="1.1" id="Layer_1" xmlns="http://www.w3.org/2000/svg" xmlns:xlink="http://www.w3.org/1999/xlink" x="0px" y="0px"
	 viewBox="0 0 232 144" style="enable-background:new 0 0 232 144;" xml:space="preserve">
<style type="text/css">
	.st0{opacity:0.3;fill:#231F20;}
	.st1{opacity:0.4;fill:#FFFFFF;}
	.st2{opacity:0.5;fill:#FFFFFF;}
	.st3{opacity:0.18;fill:#231F20;}
	.st4{opacity:0.3;fill:#FFFFFF;}
	.st5{opacity:0.2;fill:#FFFFFF;}
	.st6{opacity:0.28;}
	.st7{clip-path:url(#SVGID_2_);}
	.st8{opacity:0.7;}
	.st9{fill:#FFFFFF;}
	.st10{opacity:0.17;fill:#231F20;}
	.st11{opacity:6.000000e-02;fill:#231F20;}
	.st12{opacity:0.8;fill:#FFFFFF;}
	.st13{opacity:0.1;fill:#FFFFFF;}
	.st14{opacity:0.2;}
	.st15{clip-path:url(#SVGID_4_);}
	.st16{opacity:0.75;}
	.st17{opacity:5.000000e-02;}
</style>
<g>
	<g>
		<g>
			<path class="st0" d="M104.4,61.7c-0.3-1.6-1.5-7-1.6-17.1c-8.5,4-15.3,23.6-8.3,22.8c2.7-0.3,5.1-2.7,10.9-3
				C104.8,63.7,104.6,62.8,104.4,61.7z"/>
			<path class="st0" d="M116.1,44.3c1.9,0,3.8,3.4,3.8,10.4c0,7-1.9,14.9-3.8,14.9s-3.7-7.9-3.7-14.9
				C112.4,47.7,114.2,44.3,116.1,44.3z"/>
			<path class="st0" d="M128,61.7c0.3-1.6,1.5-7,1.6-17.1c8.5,4,15.3,23.6,8.3,22.8c-2.7-0.3-5.1-2.7-10.9-3
				C127.6,63.7,127.8,62.8,128,61.7z"/>
			<path class="st1" d="M116.1,27.1c2.5,0,4.5,2,4.5,4.5c0,2.5-2,4.5-4.5,4.5c-2.5,0-4.5-2-4.5-4.5
				C111.7,29.2,113.7,27.1,116.1,27.1z"/>
			<path class="st2" d="M115.8,10c-1.9,0.1-13,14.7-13,32.8c0,11.2,1.3,17.2,1.6,18.9c0.7,3.4,1.6,5.5,10,5.7
				c-1.1-2.9-1.9-8-1.9-12.7c0-7,1.8-10.4,3.7-10.4c1.9,0,3.8,3.5,3.8,10.4c0,4.7-0.9,9.8-2,12.6c7.9-0.3,9.3-2.3,10-5.8
				c0.4-1.6,1.7-7.6,1.7-18.8C129.6,24.7,117.6,10,115.8,10z M116.1,38.3c-3.7,0-6.7-3-6.7-6.7c0-3.7,3-6.7,6.7-6.7
				c3.7,0,6.7,3,6.7,6.7C122.9,35.3,119.9,38.3,116.1,38.3z"/>
			<path class="st3" d="M116.1,44.3c1.8,0,3.7,3.4,3.7,10.4c0,7-1.9,14.7-3.7,14.9V44.3z"/>
			<path class="st4" d="M106.4,45.8c0-17.3,4.7-28.4,9.4-35.8c0,0,0,0,0,0c-1.9,0.1-13,14.7-13,32.8c0,11.2,1.3,17.2,1.6,18.9
				c0.5,2.5,1.2,4.3,5,5.2C108,60.9,106.4,52.2,106.4,45.8z"/>
		</g>
	</g>
	<path class="st5" d="M118.1,84c0-4.3,0-10.8,0-15.6c0,0-0.1,0-0.1,0c-0.6,1.4-1.2,2.3-1.8,2.3c-0.6,0-1.2-0.9-1.8-2.3
		c-0.1,0-0.2,0-0.3,0c0,4.7,0,11.3,0,15.6H118.1z"/>
	<path class="st5" d="M120.6,84c0-4.4-0.1-11-0.1-15.8c-0.8,0.1-1.6,0.1-2.6,0.2c-0.6,1.4-1.2,2.3-1.8,2.3c-0.6,0-1.2-0.9-1.8-2.3
		c-1,0-2-0.1-2.8-0.2c0,4.8,0,11.4-0.1,15.8H120.6z"/>
	<path class="st5" d="M123,84c-0.1-4.5-0.2-11.2-0.2-16.2c-1.3,0.3-2.9,0.5-4.9,0.6c-0.6,1.4-1.2,2.3-1.8,2.3
		c-0.6,0-1.2-0.9-1.8-2.3c-2.2-0.1-3.8-0.2-5.1-0.5c0,4.9-0.1,11.6-0.2,16.1H123z"/>
	<path class="st6" d="M154.6,144h0.1c0,0,0-0.1-0.1-0.1C154.6,143.9,154.6,144,154.6,144z"/>
	<path class="st6" d="M77.5,144h0.6c-0.1-0.2-0.1-0.3-0.2-0.5C77.8,143.7,77.7,143.8,77.5,144z"/>
	<g>
		<defs>
			<path id="SVGID_1_" d="M26,74v70h5.2c-0.4-1.2-0.6-2.4-0.6-3.7c0-4.9,3-9.2,7.3-11c1.5-9.9,10.7-17.6,21.8-17.6
				c7.9,0,14.8,3.8,18.6,9.6c1-0.5,2.1-0.9,3.3-0.9c3.5,0,6.4,2.6,6.5,5.9c1.2-0.3,2.4-0.4,3.6-0.4c7.3,0,13.3,5,14.3,11.5
				c0.8-0.4,1.7-0.6,2.6-0.6c3.3,0,6.1,2.5,6.1,5.6c0,0.5-0.1,1-0.2,1.4h4.5c0-0.2,0-0.4,0-0.6c0-2.7,2.3-4.8,5.2-4.8
				c0.3,0,0.5,0,0.8,0.1c0,0,0,0,0-0.1c0-7.9,6.9-14.3,15.4-14.3c3.2,0,6.2,0.9,8.6,2.5c0.9-2.3,3.3-3.9,6.1-3.9c0.3,0,0.6,0,1,0.1
				c4-5.3,10.6-8.8,18.1-8.8c12.1,0,22,9.1,22,20.4c0,0.1,0,0.3,0,0.4c3.7,1.5,6.3,5,6.6,9.1h3.3V74H26z"/>
		</defs>
		<clipPath id="SVGID_2_">
			<use xlink:href="#SVGID_1_"  style="overflow:visible;"/>
		</clipPath>
		<g class="st7">
			<g>
				<g>
					<g>
						<g class="st8">
							<path class="st9" d="M154,87l-80,0c-0.6,0-1,0.4-1,1v56h82V88C155,87.4,154.6,87,154,87z M81,103h31v22H81V103z M147,116h-31
								v-1h31V116z M147,119h-31v-1h31V119z M147,122h-31v-1h31V122z M134,125h-18v-1h18V125z M147,113h-31v-1h31V113z M147,110h-31
								v-1h31V110z M147,107h-31v-1h31V107z M147,104h-31v-1h31V104z M112,142H81v-1h31V142z M112,139H81v-1h31V139z M112,136H81v-1
								h31V136z M112,133H81v-1h31V133z M112,130H81v-1h31V130z M147,142h-31v-1h31V142z M147,139h-31v-1h31V139z M147,136h-31v-1
								h31V136z M147,133h-31v-1h31V133z M147,130h-31v-1h31V130z M147,99H81v-4h66V99z"/>
						</g>
					</g>
				</g>
				<g>
					<path class="st1" d="M74,86h80h1v0c0-0.5-0.4-1-1-1H74c-0.5,0-1,0.4-1,1v0H74z"/>
				</g>
			</g>
			<g>
				<g>
					<g>
						<path class="st10" d="M90.2,114.6l5.6,5.6l2.5-2.5l5.5,5.5l4.6-4.6l3.6,4.3v-20l-31,0v21L90.2,114.6z M94.9,110.1
							C94.9,110.1,94.9,110.1,94.9,110.1C94.9,110.1,94.9,110.1,94.9,110.1c0-1.9,1.5-3.4,3.3-3.4c1.5,0,2.8,1,3.2,2.3
							c0.2-0.1,0.5-0.2,0.8-0.2c1.1,0,1.9,0.9,1.9,1.9c0,0.2,0,0.5-0.1,0.7c0,0,0,0,0.1,0c0.7,0,1.2,0.6,1.2,1.2
							c0,0.7-0.6,1.2-1.2,1.2h-9.1c-1.1,0-1.9-0.9-1.9-1.9C93,111,93.9,110.1,94.9,110.1z M86.5,105c1.9,0,3.5,1.6,3.5,3.5
							c0,1.9-1.6,3.5-3.5,3.5c-1.9,0-3.5-1.6-3.5-3.5C83,106.6,84.6,105,86.5,105z"/>
						<polygon class="st11" points="98.3,117.8 95.9,120.2 100.6,125 102.2,125 103.9,123.3 						"/>
						<path class="st12" d="M86.5,112c1.9,0,3.5-1.6,3.5-3.5c0-1.9-1.6-3.5-3.5-3.5c-1.9,0-3.5,1.6-3.5,3.5
							C83,110.4,84.6,112,86.5,112z"/>
						<polygon class="st13" points="108.4,118.7 102.2,125 112,125 112,125 112,123 						"/>
						<polygon class="st5" points="90.2,114.6 81,124 81,125 100.6,125 95.9,120.2 						"/>
					</g>
				</g>
				<path class="st5" d="M94.9,110.1C94.9,110.1,94.9,110.1,94.9,110.1C94.9,110.1,94.9,110.1,94.9,110.1c0-1.9,1.5-3.4,3.3-3.4
					c1.5,0,2.8,1,3.2,2.3c0.2-0.1,0.5-0.2,0.8-0.2c1.1,0,1.9,0.9,1.9,1.9c0,0.2,0,0.5-0.1,0.7c0,0,0,0,0.1,0c0.7,0,1.2,0.6,1.2,1.2
					c0,0.7-0.6,1.2-1.2,1.2h-9.1c-1.1,0-1.9-0.9-1.9-1.9C93,111,93.9,110.1,94.9,110.1z"/>
			</g>
		</g>
	</g>
	<g class="st14">
		<defs>
			<path id="SVGID_3_" class="st14" d="M114.8,142.6c0,0.5-0.1,1-0.2,1.4H78.1c-0.1-0.2-0.1-0.3-0.2-0.5c-0.1,0.2-0.3,0.4-0.4,0.5
				H54H41.8H31.2c-0.4-1.2-0.6-2.4-0.6-3.7c0-4.9,3-9.2,7.3-11c1.5-9.9,10.7-17.6,21.8-17.6c7.9,0,14.8,3.8,18.6,9.6
				c1-0.5,2.1-0.9,3.3-0.9c3.5,0,6.4,2.6,6.5,5.9c1.2-0.3,2.4-0.4,3.6-0.4c7.3,0,13.3,5,14.3,11.5c0.8-0.4,1.7-0.6,2.6-0.6
				C112,136.9,114.8,139.5,114.8,142.6z M196.1,134.9c0-0.1,0-0.3,0-0.4c0-11.3-9.8-20.4-22-20.4c-7.5,0-14.1,3.5-18.1,8.8
				c-0.3,0-0.6-0.1-1-0.1c-2.8,0-5.2,1.6-6.1,3.9c-2.5-1.6-5.4-2.5-8.6-2.5c-8.5,0-15.4,6.4-15.4,14.3c0,0,0,0,0,0.1
				c-0.3,0-0.5-0.1-0.8-0.1c-2.9,0-5.2,2.1-5.2,4.8c0,0.2,0,0.4,0,0.6h35.5c0,0,0-0.1,0-0.1c0,0,0,0.1,0.1,0.1h26.6h12.2h9.1
				C202.4,139.9,199.7,136.4,196.1,134.9z"/>
		</defs>
		<clipPath id="SVGID_4_">
			<use xlink:href="#SVGID_3_"  style="overflow:visible;"/>
		</clipPath>
		<g class="st15">
			<g>
				<g>
					<g class="st16">
						<g class="st8">
							<path class="st9" d="M154,87l-80,0c-0.6,0-1,0.4-1,1v56h82V88C155,87.4,154.6,87,154,87z M81,103h31v22H81V103z M147,116h-31
								v-1h31V116z M147,119h-31v-1h31V119z M147,122h-31v-1h31V122z M134,125h-18v-1h18V125z M147,113h-31v-1h31V113z M147,110h-31
								v-1h31V110z M147,107h-31v-1h31V107z M147,104h-31v-1h31V104z M112,142H81v-1h31V142z M112,139H81v-1h31V139z M112,136H81v-1
								h31V136z M112,133H81v-1h31V133z M112,130H81v-1h31V130z M147,142h-31v-1h31V142z M147,139h-31v-1h31V139z M147,136h-31v-1
								h31V136z M147,133h-31v-1h31V133z M147,130h-31v-1h31V130z M147,99H81v-4h66V99z"/>
						</g>
					</g>
				</g>
				<g>
					<path class="st1" d="M74,86h80h1v0c0-0.5-0.4-1-1-1H74c-0.5,0-1,0.4-1,1v0H74z"/>
				</g>
			</g>
			<g>
				<g>
					<g>
						<path class="st10" d="M90.2,114.6l5.6,5.6l2.5-2.5l5.5,5.5l4.6-4.6l3.6,4.3v-20l-31,0v21L90.2,114.6z M94.9,110.1
							C94.9,110.1,94.9,110.1,94.9,110.1C94.9,110.1,94.9,110.1,94.9,110.1c0-1.9,1.5-3.4,3.3-3.4c1.5,0,2.8,1,3.2,2.3
							c0.2-0.1,0.5-0.2,0.8-0.2c1.1,0,1.9,0.9,1.9,1.9c0,0.2,0,0.5-0.1,0.7c0,0,0,0,0.1,0c0.7,0,1.2,0.6,1.2,1.2
							c0,0.7-0.6,1.2-1.2,1.2h-9.1c-1.1,0-1.9-0.9-1.9-1.9C93,111,93.9,110.1,94.9,110.1z M86.5,105c1.9,0,3.5,1.6,3.5,3.5
							c0,1.9-1.6,3.5-3.5,3.5c-1.9,0-3.5-1.6-3.5-3.5C83,106.6,84.6,105,86.5,105z"/>
						<polygon class="st11" points="98.3,117.8 95.9,120.2 100.6,125 102.2,125 103.9,123.3 						"/>
						<path class="st12" d="M86.5,112c1.9,0,3.5-1.6,3.5-3.5c0-1.9-1.6-3.5-3.5-3.5c-1.9,0-3.5,1.6-3.5,3.5
							C83,110.4,84.6,112,86.5,112z"/>
						<polygon class="st13" points="108.4,118.7 102.2,125 112,125 112,125 112,123 						"/>
						<polygon class="st5" points="90.2,114.6 81,124 81,125 100.6,125 95.9,120.2 						"/>
					</g>
				</g>
				<path class="st5" d="M94.9,110.1C94.9,110.1,94.9,110.1,94.9,110.1C94.9,110.1,94.9,110.1,94.9,110.1c0-1.9,1.5-3.4,3.3-3.4
					c1.5,0,2.8,1,3.2,2.3c0.2-0.1,0.5-0.2,0.8-0.2c1.1,0,1.9,0.9,1.9,1.9c0,0.2,0,0.5-0.1,0.7c0,0,0,0,0.1,0c0.7,0,1.2,0.6,1.2,1.2
					c0,0.7-0.6,1.2-1.2,1.2h-9.1c-1.1,0-1.9-0.9-1.9-1.9C93,111,93.9,110.1,94.9,110.1z"/>
			</g>
		</g>
	</g>
	<path class="st5" d="M185.6,117.1c-3.3-1.9-7.3-3-11.5-3c-7.5,0-14.1,3.5-18.1,8.8c-0.3,0-0.6-0.1-1-0.1c0,0,0,0-0.1,0v-15.2
		c1,0.3,2,0.9,2.9,1.6c0,0,0.1,0.1,0.1,0.1c0.2-0.2,0.3-0.5,0.5-0.7c3.5-4.2,9.8-4.8,14-1.2c1.2,1,2.1,2.2,2.7,3.6
		c2.6-0.4,5.3,0.2,7.5,2C184.1,114.1,185,115.6,185.6,117.1z M73,100.8c-0.7,0.7-1.4,1.5-1.8,2.3c-1.4-1.9-4.1-2.4-6-1
		c-1.7,1.2-2.3,3.4-1.5,5.2c-2.6,0-5.3,0.8-7.7,2.4c-1.2,0.9-2.3,1.9-3.1,3.1c2.1-0.6,4.4-1,6.8-1c5,0,9.6,1.6,13.3,4.2V100.8z"/>
	<path class="st17" d="M114.8,142.6c0,0.5-0.1,1-0.2,1.4H78.1c-0.1-0.2-0.1-0.3-0.2-0.5c-0.1,0.2-0.3,0.4-0.4,0.5H54H41.8H31.2
		c-0.4-1.2-0.6-2.4-0.6-3.7c0-4.9,3-9.2,7.3-11c1.5-9.9,10.7-17.6,21.8-17.6c7.9,0,14.8,3.8,18.6,9.6c1-0.5,2.1-0.9,3.3-0.9
		c3.5,0,6.4,2.6,6.5,5.9c1.2-0.3,2.4-0.4,3.6-0.4c7.3,0,13.3,5,14.3,11.5c0.8-0.4,1.7-0.6,2.6-0.6
		C112,136.9,114.8,139.5,114.8,142.6z M196.1,134.9c0-0.1,0-0.3,0-0.4c0-11.3-9.8-20.4-22-20.4c-7.5,0-14.1,3.5-18.1,8.8
		c-0.3,0-0.6-0.1-1-0.1c-2.8,0-5.2,1.6-6.1,3.9c-2.5-1.6-5.4-2.5-8.6-2.5c-8.5,0-15.4,6.4-15.4,14.3c0,0,0,0,0,0.1
		c-0.3,0-0.5-0.1-0.8-0.1c-2.9,0-5.2,2.1-5.2,4.8c0,0.2,0,0.4,0,0.6h35.5c0,0,0-0.1,0-0.1c0,0,0,0.1,0.1,0.1h26.6h12.2h9.1
		C202.4,139.9,199.7,136.4,196.1,134.9z"/>
</g>
</svg>
