<svg xmlns="http://www.w3.org/2000/svg" xmlns:xlink="http://www.w3.org/1999/xlink" viewBox="0 0 232 144" enable-background="new 0 0 232 144"><defs><path id="0" opacity=".9" d="m5.937 8.442v124.03h220.61v-124.03h-220.61m63.19 103.7c-19.267 0-34.943-15.677-34.943-34.947s15.675-34.947 34.943-34.947c19.27 0 34.947 15.677 34.947 34.947s-15.677 34.947-34.947 34.947m90.47 0c-19.267 0-34.943-15.677-34.943-34.947s15.675-34.947 34.943-34.947c19.27 0 34.947 15.677 34.947 34.947s-15.677 34.947-34.947 34.947"/><path id="1" opacity=".75" d="m116.37 66.44c2.77-16.191 14.226-29.409 29.399-34.705v-14h-117.61v115.26h117.61v-31.848c-15.173-5.296-26.629-18.514-29.398-34.708"/><path id="2" opacity=".5" d="m196.95 61.59v32.14h-49.91v18.46h58.26v-50.6z"/><path id="3" opacity=".4" d="m99.97 109.08c-.866 0-1.568-.702-1.568-1.568v-14.05c0-.866.702-1.568 1.568-1.568h69.28v-7.89h-69.28c-.866 0-1.568-.702-1.568-1.568v-14.05c0-.866.702-1.568 1.568-1.568h69.28v-36.496h-110.89c4.142 0 8.425 0 14.66 3.459 7.438 4.126 10.263 12.2 10.423 17.862.127 4.549-.448 8.302-.722 9.802 1.415.861 2.83 2.644 2.83 6.334 0 4.601-2.3 11.01-6.05 11.06-2.295 6.556-5.983 12.326-10.219 15.987v7.201l1.22 2.945c6.291 1.493 20.239 5.328 24.753 10.855 2.641 3.241 5.148 25.792 5.426 28.353l.011.1h68.55v-35.2h-69.28z"/><clipPath><use xlink:href="#3"/></clipPath><clipPath><use xlink:href="#2"/></clipPath><clipPath><use xlink:href="#0"/></clipPath><clipPath><use xlink:href="#1"/></clipPath></defs><path opacity=".55" fill="#fff" d="m58.32 20.793v30.22h30.23c.0001-16.705-13.52-30.22-30.23-30.22"/><path opacity=".5" d="m58.32 51.01v-30.22c-16.674 0-30.21 13.514-30.21 30.22 0 16.689 13.539 30.19 30.21 30.19 8.37 0 15.899-3.385 21.357-8.857l-21.357-21.333"/><path opacity=".3" d="m58.32 51.01l21.357 21.332c5.422-5.441 8.87-12.993 8.87-21.332h-30.23"/><g fill="#fff"><path opacity=".85" d="m118.64 134.76h13.358v9.239h-13.358z"/><path opacity=".45" d="m136.66 117.78h13.362v26.22h-13.362z"/><path opacity=".85" d="m154.68 127.97h13.358v16.03h-13.358z"/><path opacity=".45" d="m172.7 93.37h13.36v50.627h-13.36z"/><path opacity=".85" d="m190.71 112.28h13.358v31.724h-13.358z"/><path opacity=".45" d="m28.535 114.69h13.358v29.31h-13.358z"/><path opacity=".85" d="m46.552 123.33h13.362v20.673h-13.362z"/><path opacity=".45" d="m64.57 113.66h13.358v30.34h-13.358z"/><path opacity=".85" d="m82.59 104.98h13.36v39.02h-13.36z"/><path opacity=".45" d="m100.6 117.78h13.358v26.22h-13.358z"/></g><path opacity=".15" d="m107.28 27.688h44.06v3.085h-44.06z"/><path opacity=".7" fill="#fff" d="m107.28 34.771h96.53v3.085h-96.53z"/><path opacity=".15" d="m107.28 41.854h77.78v3.086h-77.78z"/><path opacity=".7" fill="#fff" d="m107.28 48.936h83.75v3.087h-83.75z"/><path opacity=".15" d="m107.28 56.02h73.878v3.084h-73.878z"/><path opacity=".7" fill="#fff" d="m107.28 63.1h31.519v3.082h-31.519z"/><path opacity=".15" d="m107.28 70.19h69.35v3.084h-69.35z"/></svg>