<svg xmlns="http://www.w3.org/2000/svg" xmlns:xlink="http://www.w3.org/1999/xlink" viewBox="0 0 232 144" enable-background="new 0 0 232 144"><defs><path id="1" opacity=".9" d="m5.937 8.442v124.03h220.61v-124.03h-220.61m63.19 103.7c-19.267 0-34.943-15.677-34.943-34.947s15.675-34.947 34.943-34.947c19.27 0 34.947 15.677 34.947 34.947s-15.677 34.947-34.947 34.947m90.47 0c-19.267 0-34.943-15.677-34.943-34.947s15.675-34.947 34.943-34.947c19.27 0 34.947 15.677 34.947 34.947s-15.677 34.947-34.947 34.947"/><path id="2" opacity=".75" d="m116.37 63.44c2.77-16.191 14.226-29.409 29.399-34.705v-14h-117.61v115.26h117.61v-31.848c-15.173-5.296-26.629-18.514-29.398-34.708"/><path id="3" opacity=".5" d="m196.95 58.59v32.14h-49.91v18.46h58.26v-50.6z"/><path id="4" opacity=".4" d="m99.97 109.08c-.866 0-1.568-.702-1.568-1.568v-14.05c0-.866.702-1.568 1.568-1.568h69.28v-7.89h-69.28c-.866 0-1.568-.702-1.568-1.568v-14.05c0-.866.702-1.568 1.568-1.568h69.28v-36.496h-110.89c4.142 0 8.425 0 14.66 3.459 7.438 4.126 10.263 12.2 10.423 17.862.127 4.549-.448 8.302-.722 9.802 1.415.861 2.83 2.644 2.83 6.334 0 4.601-2.3 11.01-6.05 11.06-2.295 6.556-5.983 12.326-10.219 15.987v7.201l1.22 2.945c6.291 1.493 20.239 5.328 24.753 10.855 2.641 3.241 5.148 25.792 5.426 28.353l.011.1h68.55v-35.2h-69.28z"/><clipPath id="0"><use xlink:href="#4"/></clipPath><clipPath><use xlink:href="#3"/></clipPath><clipPath><use xlink:href="#1"/></clipPath><clipPath><use xlink:href="#2"/></clipPath></defs><path fill="#f9fcfc" d="m58.36 106.82l-.001.001h.001z"/><g fill="#fff"><path d="m58.36 106.82c3.157-.084 6-.436 7.845-1.393-6.976-1.638-13.154-5.34-17.844-10.434v7.331c.082 3.429 4.588 4.351 9.999 4.496"/><path opacity=".75" d="m66.2 105.43c1.316-.683 2.119-1.675 2.153-3.103v-7.925c-3.02 2.512-6.414 4.03-10.01 4.03-3.586 0-6.976-1.517-9.99-4.02v.581c4.69 5.094 10.868 8.796 17.843 10.434"/><path d="m37.765 61.58c-.878-.167-1.507-.105-1.945.009-.003.036-.005.073-.008.11.451-.105.928-.159 1.427-.159.178-.0001.353.013.526.04"/><path d="m44.614 45.578c0 1.377-.689 7.313-1.246 8.528s-2.522 2.75-3.089 4.132c-.295.718-.567 2.526-.761 4.099-.179 1.454-.292 2.707-.292 2.707h-1.426l-.035-3.465c-.173-.026-.348-.041-.526-.041-.5 0-.976.054-1.427.159-2.201.512-3.737 2.333-3.737 6.087 0 4.523 2.227 10.135 5.164 10.135.205 0 .406-.022.604-.056 2.193 6.601 5.914 12.731 10.514 16.554 3.02 2.505 6.404 4.02 9.99 4.02v-45.63c-8.991-1.22-13.733-8.607-13.733-7.23"/><path opacity=".9" d="m80.889 61.698c-.003-.038-.005-.076-.008-.114-.438-.112-1.062-.17-1.931-.006l-.035 3.467h-1.427c0 0-.486-5.424-1.053-6.806-.567-1.382-2.532-2.917-3.089-4.132-.557-1.215-8.321-.396-14.989-1.297-.003 0-.006-.0001-.001-.002v45.63c3.592 0 6.987-1.522 10.01-4.03 4.595-3.823 8.311-9.947 10.502-16.541.198.034.398.056.601.056 2.938 0 5.164-5.611 5.164-10.135.002-3.752-1.532-5.573-3.731-6.086"/></g><path opacity=".3" d="m37.765 61.58l.035 3.466h1.427c0 0 .113-1.254.292-2.707.194-1.573.466-3.38.761-4.099.567-1.382 2.532-2.917 3.089-4.132s1.246-7.151 1.246-8.528c0-1.377 4.742 6.01 13.734 7.23.003 0 .006.0001.001.002 6.668.901 14.432.081 14.989 1.297.557 1.215 2.522 2.75 3.089 4.132.567 1.382 1.053 6.806 1.053 6.806h1.427l.035-3.467c.868-.164 1.492-.105 1.931.006.545.139.795.361.795.361s.999-4.517.837-10.27c-.162-5.753-3.053-13.253-9.945-17.08-6.02-3.338-10.05-3.342-14.21-3.342s-8.272.065-14.29 3.403c-6.892 3.823-9.703 11.262-9.865 17.02-.162 5.753.837 10.27.837 10.27s.246-.218.78-.357c.436-.114 1.065-.175 1.943-.001"/><g fill="#fff"><path opacity=".65" d="m94.54 116.42c-4.563-5.586-19.885-9.522-24.711-10.647l.0001.0001-3.573 8.79c0 0-1.227-1.602-3.056-3.507l-3.423 4.522c2.513 7.291 4.205 17.738 4.604 28.707h35.38c0 0-2.679-24.745-5.221-27.866"/><path opacity=".65" d="m57.1 115.58l-3.568-4.547c-1.842 1.916-3.08 3.532-3.08 3.532l-3.573-8.79v-.002c-4.156.968-16.09 4.02-22.24 8.406-2.893 1.988-4.793 3.223-7.71 30.11h36.21c.259-11.382 1.208-22.278 3.96-28.706"/></g><path opacity=".25" d="m64.38 144.29c-.399-10.968-2.091-21.416-4.604-28.707l3.423-4.522c-1.364-1.421-3.061-3.01-4.841-4.232h-.002c-1.77 1.216-3.457 2.793-4.817 4.208l3.568 4.547c-2.752 6.428-3.701 17.324-3.96 28.707h11.233z"/><g fill="#fff"><path opacity=".45" d="m50.46 114.56c0 0 1.238-1.616 3.08-3.532 1.36-1.414 3.047-2.992 4.817-4.208v-.0001c-5.411-.145-9.917-1.067-9.998-4.496-.0001-.031-.008-.059-.008-.091l-1.465 3.536v.002l3.574 8.79"/><path opacity=".45" d="m66.2 105.43c-1.844.956-4.688 1.308-7.845 1.393v.0001c1.781 1.223 3.478 2.812 4.842 4.233 1.829 1.906 3.056 3.507 3.056 3.507l3.573-8.79-.0001-.0001-1.465-3.537c0 .032-.007.06-.008.092-.034 1.427-.837 2.42-2.153 3.102"/><path opacity=".9" d="m215.94 16.997h-115.98c-.866 0-1.568.702-1.568 1.568v14.05c0 .866.702 1.568 1.568 1.568h115.98c.866 0 1.568-.702 1.568-1.568v-14.05c0-.866-.702-1.568-1.568-1.568m-84.76 4.454c0-.299.242-.541.541-.541h31.906c.299 0 .541.242.541.541v.811c0 .299-.242.541-.541.541h-31.906c-.299 0-.541-.242-.541-.541v-.811m-14.86 0c0-.299.242-.541.541-.541h11.02c.299 0 .541.242.541.541v.811c0 .299-.242.541-.541.541h-11.02c-.299 0-.541-.242-.541-.541v-.811m-9.03 9.378c-2.894 0-5.24-2.346-5.24-5.24s2.346-5.24 5.24-5.24 5.24 2.346 5.24 5.24-2.346 5.24-5.24 5.24m47.898-1.09c0 .283-.23.513-.513.513h-37.846c-.283 0-.513-.23-.513-.513v-.116c0-.283.23-.513.513-.513h37.846c.283 0 .513.23.513.513v.116m48.861-3.359c0 .283-.23.513-.513.513h-86.71c-.283 0-.513-.23-.513-.513v-.116c0-.283.23-.513.513-.513h86.71c.283 0 .513.23.513.513v.116"/></g><path opacity=".1" d="m116.86 22.803h11.02c.299 0 .541-.242.541-.541v-.811c0-.299-.242-.541-.541-.541h-11.02c-.299 0-.541.242-.541.541v.811c0 .299.242.541.541.541"/><path opacity=".1" d="m131.72 22.803h31.906c.299 0 .541-.242.541-.541v-.811c0-.299-.242-.541-.541-.541h-31.906c-.299 0-.541.242-.541.541v.811c0 .299.242.541.541.541"/><g fill="#fff"><path opacity=".6" d="m203.54 25.75h-86.71c-.283 0-.513.23-.513.513v.116c0 .283.23.513.513.513h86.71c.283 0 .513-.23.513-.513v-.116c0-.283-.23-.513-.513-.513"/><path opacity=".6" d="m154.68 29.11h-37.846c-.283 0-.513.23-.513.513v.116c0 .283.23.513.513.513h37.846c.283 0 .513-.23.513-.513v-.116c0-.284-.23-.513-.513-.513"/><circle opacity=".4" cx="107.29" cy="25.589" r="5.24"/></g><path opacity=".3" d="m215.94 34.18h-115.98c-.866 0-1.568-.702-1.568-1.568v1.16c0 .866.702 1.568 1.568 1.568h115.98c.866 0 1.568-.702 1.568-1.568v-1.16c0 .866-.702 1.568-1.568 1.568"/><path opacity=".9" fill="#fff" d="m215.94 41.91h-115.98c-.866 0-1.568.702-1.568 1.568v14.05c0 .866.702 1.568 1.568 1.568h115.98c.866 0 1.568-.702 1.568-1.568v-14.05c0-.867-.702-1.569-1.568-1.569m-84.76 4.454c0-.299.242-.541.541-.541h31.906c.299 0 .541.242.541.541v.811c0 .299-.242.541-.541.541h-31.906c-.299 0-.541-.242-.541-.541v-.811m-14.86 0c0-.299.242-.541.541-.541h11.02c.299 0 .541.242.541.541v.811c0 .299-.242.541-.541.541h-11.02c-.299 0-.541-.242-.541-.541v-.811m-9.03 9.379c-2.894 0-5.24-2.346-5.24-5.24 0-2.894 2.346-5.24 5.24-5.24s5.24 2.346 5.24 5.24c0 2.894-2.346 5.24-5.24 5.24m47.898-1.091c0 .283-.23.513-.513.513h-37.846c-.283 0-.513-.23-.513-.513v-.116c0-.283.23-.513.513-.513h37.846c.283 0 .513.23.513.513v.116m48.861-3.359c0 .283-.23.513-.513.513h-86.71c-.283 0-.513-.23-.513-.513v-.116c0-.283.23-.513.513-.513h86.71c.283 0 .513.23.513.513v.116"/><path opacity=".1" d="m116.86 47.717h11.02c.299 0 .541-.242.541-.541v-.811c0-.299-.242-.541-.541-.541h-11.02c-.299 0-.541.242-.541.541v.811c0 .299.242.541.541.541"/><path opacity=".1" d="m131.72 47.717h31.906c.299 0 .541-.242.541-.541v-.811c0-.299-.242-.541-.541-.541h-31.906c-.299 0-.541.242-.541.541v.811c0 .299.242.541.541.541"/><g fill="#fff"><path opacity=".6" d="m203.54 50.664h-86.71c-.283 0-.513.23-.513.513v.116c0 .283.23.513.513.513h86.71c.283 0 .513-.23.513-.513v-.116c0-.283-.23-.513-.513-.513"/><path opacity=".6" d="m154.68 54.02h-37.846c-.283 0-.513.23-.513.513v.116c0 .283.23.513.513.513h37.846c.283 0 .513-.23.513-.513v-.116c0-.283-.23-.513-.513-.513"/><circle opacity=".4" cx="107.29" cy="50.5" r="5.24"/></g><path opacity=".3" d="m215.94 59.1h-115.98c-.866 0-1.568-.702-1.568-1.568v1.16c0 .866.702 1.568 1.568 1.568h115.98c.866 0 1.568-.702 1.568-1.568v-1.16c0 .866-.702 1.568-1.568 1.568"/><path opacity=".9" fill="#fff" d="m215.94 66.824h-115.98c-.866 0-1.568.702-1.568 1.568v14.05c0 .866.702 1.568 1.568 1.568h115.98c.866 0 1.568-.702 1.568-1.568v-14.05c0-.866-.702-1.568-1.568-1.568m-84.76 4.454c0-.299.242-.541.541-.541h31.906c.299 0 .541.242.541.541v.811c0 .299-.242.541-.541.541h-31.906c-.299 0-.541-.242-.541-.541v-.811m-14.86 0c0-.299.242-.541.541-.541h11.02c.299 0 .541.242.541.541v.811c0 .299-.242.541-.541.541h-11.02c-.299 0-.541-.242-.541-.541v-.811m-9.03 9.378c-2.894 0-5.24-2.346-5.24-5.24 0-2.894 2.346-5.24 5.24-5.24s5.24 2.346 5.24 5.24c0 2.894-2.346 5.24-5.24 5.24m47.898-1.09c0 .283-.23.513-.513.513h-37.846c-.283 0-.513-.23-.513-.513v-.116c0-.283.23-.513.513-.513h37.846c.283 0 .513.23.513.513v.116m48.861-3.359c0 .283-.23.513-.513.513h-86.71c-.283 0-.513-.23-.513-.513v-.116c0-.283.23-.513.513-.513h86.71c.283 0 .513.23.513.513v.116"/><path opacity=".1" d="m116.86 72.63h11.02c.299 0 .541-.242.541-.541v-.811c0-.299-.242-.541-.541-.541h-11.02c-.299 0-.541.242-.541.541v.811c0 .299.242.541.541.541"/><path opacity=".1" d="m131.72 72.63h31.906c.299 0 .541-.242.541-.541v-.811c0-.299-.242-.541-.541-.541h-31.906c-.299 0-.541.242-.541.541v.811c0 .299.242.541.541.541"/><g fill="#fff"><path opacity=".6" d="m203.54 75.58h-86.71c-.283 0-.513.23-.513.513v.116c0 .283.23.513.513.513h86.71c.283 0 .513-.23.513-.513v-.116c0-.283-.23-.513-.513-.513"/><path opacity=".6" d="m154.68 78.937h-37.846c-.283 0-.513.23-.513.513v.116c0 .283.23.513.513.513h37.846c.283 0 .513-.23.513-.513v-.116c0-.284-.23-.513-.513-.513"/><circle opacity=".4" cx="107.29" cy="75.42" r="5.24"/></g><path opacity=".3" d="m215.94 84.01h-115.98c-.866 0-1.568-.702-1.568-1.568v1.16c0 .866.702 1.568 1.568 1.568h115.98c.866 0 1.568-.702 1.568-1.568v-1.16c0 .866-.702 1.568-1.568 1.568"/><path opacity=".9" fill="#fff" d="m215.94 91.74h-115.98c-.866 0-1.568.702-1.568 1.568v14.05c0 .866.702 1.568 1.568 1.568h115.98c.866 0 1.568-.702 1.568-1.568v-14.05c0-.867-.702-1.569-1.568-1.569m-84.76 4.454c0-.299.242-.541.541-.541h31.906c.299 0 .541.242.541.541v.811c0 .299-.242.541-.541.541h-31.906c-.299 0-.541-.242-.541-.541v-.811m-14.86 0c0-.299.242-.541.541-.541h11.02c.299 0 .541.242.541.541v.811c0 .299-.242.541-.541.541h-11.02c-.299 0-.541-.242-.541-.541v-.811m-9.03 9.379c-2.894 0-5.24-2.346-5.24-5.24 0-2.894 2.346-5.24 5.24-5.24s5.24 2.346 5.24 5.24c0 2.894-2.346 5.24-5.24 5.24m47.898-1.091c0 .283-.23.513-.513.513h-37.846c-.283 0-.513-.23-.513-.513v-.116c0-.283.23-.513.513-.513h37.846c.283 0 .513.23.513.513v.116m48.861-3.359c0 .283-.23.513-.513.513h-86.71c-.283 0-.513-.23-.513-.513v-.116c0-.283.23-.513.513-.513h86.71c.283 0 .513.23.513.513v.116"/><path opacity=".1" d="m116.86 97.54h11.02c.299 0 .541-.242.541-.541v-.811c0-.299-.242-.541-.541-.541h-11.02c-.299 0-.541.242-.541.541v.811c0 .299.242.541.541.541"/><path opacity=".1" d="m131.72 97.54h31.906c.299 0 .541-.242.541-.541v-.811c0-.299-.242-.541-.541-.541h-31.906c-.299 0-.541.242-.541.541v.811c0 .299.242.541.541.541"/><g fill="#fff"><path opacity=".6" d="m203.54 100.49h-86.71c-.283 0-.513.23-.513.513v.116c0 .283.23.513.513.513h86.71c.283 0 .513-.23.513-.513v-.116c0-.283-.23-.513-.513-.513"/><path opacity=".6" d="m154.68 103.85h-37.846c-.283 0-.513.23-.513.513v.116c0 .283.23.513.513.513h37.846c.283 0 .513-.23.513-.513v-.116c0-.283-.23-.513-.513-.513"/><circle opacity=".4" cx="107.29" cy="100.33" r="5.24"/></g><path opacity=".3" d="m215.94 108.92h-115.98c-.866 0-1.568-.702-1.568-1.568v1.16c0 .866.702 1.568 1.568 1.568h115.98c.866 0 1.568-.702 1.568-1.568v-1.16c0 .866-.702 1.568-1.568 1.568"/><g opacity=".4"><g clip-path="url(#0)"><g fill="#fff"><path d="m99.75 120.9v-.97c-7.718-.387-10.722-2.398-13.951-6.318v7.288h.0001c0 6.247 13.834 7.618 13.95 0"/><path opacity=".75" d="m99.75 119.93v-6.733c-2.106 1.753-4.475 2.815-6.981 2.815-2.502 0-4.867-1.058-6.97-2.806v.405c3.229 3.921 6.233 5.932 13.951 6.319"/><path d="m77.06 90.36c-.0001.009-.002.019-.002.028.251-.058.512-.095.785-.106-.297-.012-.565.025-.783.078"/><path d="m86.49 79.937c-3.087 2.038-5.71 4.861-6.323 8.03-.073.379-.245 1.576-.433 2.932-.32 2.31-.685 5.085-.685 5.085l-1-5.687c-.069-.008-.136-.009-.203-.012-.273.011-.534.048-.785.106-1.537.357-2.615 1.615-2.615 4.236 0 3.156 1.553 7.07 3.603 7.07.143 0 .283-.015.422-.039 1.53 4.605 4.126 8.883 7.336 11.549 2.103 1.747 4.468 2.806 6.97 2.806v-30.936c-3.647-1.545-5.71-3.883-6.283-5.14"/><path opacity=".9" d="m108.49 90.39c-.0001-.007-.0001-.014-.002-.021-.228-.052-.507-.099-.89-.105l-1.165 5.445c0 0-.249-5.97-.492-7.235-.223-1.701-.688-2.784-1.751-3.074-1.03-.271-3.571-.042-7.213-.865 1.455.683 2.094.89 3.357 1.127-.991.049-2.068.002-3.187-.148 1.73.532 3.488.923 5.08.997 0 .004-.002.008-.002.012-2.328.249-5.519-.099-7.956-.883-.528-.17-1.022-.361-1.496-.562v30.935c2.506 0 4.875-1.062 6.981-2.815 3.205-2.667 5.798-6.94 7.327-11.54.138.024.277.039.419.039 2.05 0 3.603-3.915 3.603-7.07-.0001-2.619-1.078-3.878-2.613-4.236"/><path opacity=".6" d="m118.02 128.56c-3.795-4.646-18.262-7.657-18.268-7.659-.116 7.618-13.95 6.247-13.95 0h-.0001c-.011.002-11.297 2.349-16.545 6.095-2.02 1.387-3.344 2.249-5.379 21.01h57.786c0 .0001-1.869-17.263-3.643-19.441"/></g><path opacity=".3" d="m77.84 90.28c.067.003.133.004.203.012l1 5.687c0 0 .365-2.775.685-5.085.188-1.356.36-2.553.433-2.932.613-3.167 3.236-5.991 6.323-8.03.573 1.257 2.636 3.596 6.283 5.141.474.201.968.392 1.496.562 2.437.783 5.628 1.131 7.956.883 0-.004.002-.008.002-.012-1.592-.073-3.35-.464-5.08-.997 1.12.15 2.196.198 3.187.148-1.263-.237-1.901-.444-3.357-1.127 3.642.822 6.184.593 7.213.865 1.064.29 1.528 1.373 1.751 3.074.244 1.265.492 7.235.492 7.235l1.165-5.445c.383.007.662.054.89.105.363.083.559.182.559.182s.697-3.151.584-7.165c-.113-4.01-2.13-9.246-6.938-11.914-2.23-1.237-4.068-1.815-5.737-2.087-.802-.604-2.02-1.017-3.388-1.07-1.283-.05-2.34.229-3.069.707-.211-.056-.442-.106-.713-.14-.855-.107-1.907.143-2.398.443.468-.141 1.063-.187 1.698-.104.103.013.188.048.286.067-1.896.225-3.977.791-6.564 2.226-4.808 2.667-6.769 7.858-6.882 11.871-.113 4.01.584 7.165.584 7.165s.216-.109.549-.19c.218-.05.486-.087.783-.076m16.53-21.375c.77.03 1.483.18 2.109.407-1.289-.171-2.488-.174-3.702-.174-.157 0-.314 0-.472.0001.621-.17 1.316-.263 2.065-.234"/></g></g></svg>