<svg xmlns="http://www.w3.org/2000/svg" xmlns:xlink="http://www.w3.org/1999/xlink" viewBox="0 0 232 144" enable-background="new 0 0 232 144"><defs><path id="0" opacity=".9" d="m5.937 8.442v124.03h220.61v-124.03h-220.61m63.19 103.7c-19.267 0-34.943-15.677-34.943-34.947s15.675-34.947 34.943-34.947c19.27 0 34.947 15.677 34.947 34.947s-15.677 34.947-34.947 34.947m90.47 0c-19.267 0-34.943-15.677-34.943-34.947s15.675-34.947 34.943-34.947c19.27 0 34.947 15.677 34.947 34.947s-15.677 34.947-34.947 34.947"/><path id="1" opacity=".75" d="m116.37 63.44c2.77-16.191 14.226-29.409 29.399-34.705v-14h-117.61v115.26h117.61v-31.848c-15.173-5.296-26.629-18.514-29.398-34.708"/><path id="2" opacity=".5" d="m196.95 58.59v32.14h-49.91v18.46h58.26v-50.6z"/><path id="3" opacity=".4" d="m99.97 109.08c-.866 0-1.568-.702-1.568-1.568v-14.05c0-.866.702-1.568 1.568-1.568h69.28v-7.89h-69.28c-.866 0-1.568-.702-1.568-1.568v-14.05c0-.866.702-1.568 1.568-1.568h69.28v-36.496h-110.89c4.142 0 8.425 0 14.66 3.459 7.438 4.126 10.263 12.2 10.423 17.862.127 4.549-.448 8.302-.722 9.802 1.415.861 2.83 2.644 2.83 6.334 0 4.601-2.3 11.01-6.05 11.06-2.295 6.556-5.983 12.326-10.219 15.987v7.201l1.22 2.945c6.291 1.493 20.239 5.328 24.753 10.855 2.641 3.241 5.148 25.792 5.426 28.353l.011.1h68.55v-35.2h-69.28z"/><clipPath><use xlink:href="#3"/></clipPath><clipPath><use xlink:href="#2"/></clipPath><clipPath><use xlink:href="#0"/></clipPath><clipPath><use xlink:href="#1"/></clipPath></defs><g opacity=".75"><path fill="#fff" d="m134.1 17.556c-.691-.691-1.597-1.037-2.504-1.037l-29.24.002c1.94.019 3.506 1.595 3.506 3.54v45.12h29.28v-45.12c.0001-.906-.345-1.812-1.037-2.504m-24.17 8.888h13.09v11.08h-13.09v-11.08m21.14 31.478h-21.14v-.887h21.14v.887m0-2.549h-21.14v-.887h21.14v.887m0-2.549h-21.14v-.887h21.14v.887m0-2.549h-21.14v-.887h21.14v.887m0-2.55h-21.14v-.887h21.14v.887m0-2.549h-21.14v-.887h21.14v.887m0-2.549h-21.14v-.887h21.14v.887m0-2.549h-21.14v-.888h21.14v.888m0-2.549h-6.266v-.887h6.266v.887m0-2.55h-6.266v-.887h6.266v.887m0-2.549h-6.266v-.887h6.266v.887m0-2.549h-6.266v-.887h6.266v.887m0-2.549h-6.266v-.887h6.266v.887m0-2.993h-21.14v-2.549h21.14v2.549" opacity=".7"/><path opacity=".3" fill="#231f20" d="m109.93 26.444h13.09v11.08h-13.09z"/></g><path opacity=".3" fill="#231f20" d="m105.86 37.529v-17.468c0-1.945-1.566-3.521-3.506-3.54h-.036c-1.953 0-3.541 1.588-3.541 3.541v17.467h7.083"/><path opacity=".4" d="m31.629 63.2h34.573v.399h-34.573z"/><g fill="#fff"><path opacity=".85" d="m31.629 33.565v29.631h34.573v-29.631h-34.573m32.618 25.649h-.032-6.404-3.269-1.585-9.339-10.04-.033v-23.658h30.664v20.986l.032.032v2.64z"/><path opacity=".6" d="m42.713 48.971l5.574 5.574 2.427-2.427 5.462 5.462 4.538-4.537 3.501 3.501v-20.988h-30.665v23.657h.032v-1.113l9.131-9.129m13.429-8.906c.082 0 .163.008.241.026.168-.659.767-1.147 1.479-1.147.842 0 1.526.684 1.526 1.526 0 .004 0 .007 0 .001.062-.013.125-.019.19-.019.506 0 .916.411.916.916 0 .507-.411.916-.916.916h-3.436c-.615 0-1.115-.499-1.115-1.115 0-.615.5-1.113 1.115-1.113m-8.642 5.258c.002 0 .003 0 .003 0 0-.031-.003-.062-.003-.093 0-1.803 1.46-3.263 3.263-3.263 1.472 0 2.717.977 3.123 2.317.247-.116.52-.181.81-.181 1.05 0 1.9.852 1.9 1.901 0 .243-.045.473-.127.687.021 0 .041-.004.063-.004.673 0 1.219.547 1.219 1.221 0 .673-.546 1.218-1.219 1.218h-9.03c-1.05 0-1.902-.852-1.902-1.902.0001-1.05.852-1.901 1.902-1.901m-7.098-7.089c1.946 0 3.523 1.577 3.523 3.524 0 1.946-1.577 3.524-3.523 3.524-1.946 0-3.523-1.577-3.523-3.524 0-1.946 1.577-3.524 3.523-3.524"/><path opacity=".15" d="m50.714 52.12l-2.424 2.42 4.666 4.67h1.584l1.64-1.63z"/><circle opacity=".8" cx="40.4" cy="41.758" r="3.524"/><path opacity=".35" d="m56.14 42.29h3.436c.506 0 .916-.41.916-.916 0-.506-.411-.916-.916-.916-.065 0-.128.006-.19.019 0-.003 0-.006 0-.001 0-.842-.684-1.526-1.526-1.526-.712 0-1.311.488-1.479 1.147-.078-.018-.159-.026-.241-.026-.615 0-1.115.499-1.115 1.115 0 .614.5 1.113 1.115 1.113"/><path opacity=".2" d="m47.5 49.13h9.03c.673 0 1.219-.545 1.219-1.218 0-.674-.546-1.221-1.219-1.221-.022 0-.042.004-.063.004.083-.214.127-.444.127-.687 0-1.049-.851-1.901-1.9-1.901-.29 0-.563.065-.81.181-.406-1.34-1.65-2.317-3.123-2.317-1.802 0-3.263 1.46-3.263 3.263 0 .031.003.062.003.093 0 0-.0001 0-.003 0-1.05 0-1.902.851-1.902 1.901.002 1.05.853 1.902 1.903 1.902"/></g><path opacity=".2" d="m60.713 53.04l-4.533 4.54-1.64 1.63h3.271 6.409.03v-2.63l-.03-.04z"/><path opacity=".2" d="m42.713 48.971l-9.13 9.129v1.11h10.03 9.339l-4.666-4.67z"/><g fill="#fff"><path opacity=".55" d="m30.781 32.735h32.649v-1.991h-34.571v29.626h1.923z"/><path opacity=".25" d="m27.922 29.876h32.648v-1.992h-34.57v29.636h1.922z"/></g><path opacity=".4" d="m164.89 65.17h32.788v.379h-32.788z"/><g fill="#fff"><path opacity=".85" d="m164.89 37.07v28.1h32.788v-28.1h-32.788m30.935 24.326h-.031-6.073-3.101-1.504-8.857-9.516-.031v-22.437h29.08v19.903l.031.031v2.503z"/><path opacity=".6" d="m175.4 51.681l5.286 5.286 2.302-2.301 5.18 5.18 4.303-4.303 3.32 3.32v-19.905h-29.08v22.436h.031v-1.054l8.659-8.659m12.736-8.447c.078 0 .155.008.229.025.159-.625.728-1.088 1.403-1.088.799 0 1.447.648 1.447 1.447 0 .004 0 .007 0 .001.059-.012.119-.018.18-.018.48 0 .869.389.869.869 0 .481-.389.869-.869.869h-3.259c-.583 0-1.057-.473-1.057-1.057 0-.584.474-1.057 1.057-1.057m-8.196 4.987c.002 0 .002 0 .002 0 0-.029-.002-.059-.002-.088 0-1.71 1.385-3.094 3.094-3.094 1.396 0 2.577.926 2.962 2.197.234-.11.493-.171.768-.171.995 0 1.802.808 1.802 1.803 0 .23-.042.449-.121.651.02 0 .039-.004.06-.004.639 0 1.156.519 1.156 1.158 0 .638-.518 1.155-1.156 1.155h-8.565c-.996 0-1.803-.808-1.803-1.804 0-.996.807-1.803 1.803-1.803m-6.732-6.723c1.846 0 3.342 1.496 3.342 3.342 0 1.846-1.496 3.342-3.342 3.342-1.845 0-3.341-1.496-3.341-3.342 0-1.846 1.496-3.342 3.341-3.342"/><path opacity=".15" d="m182.99 54.665l-2.3 2.301 4.43 4.434h1.5l1.55-1.555z"/><circle opacity=".8" cx="173.21" cy="44.84" r="3.342"/><path opacity=".35" d="m188.14 45.35h3.259c.48 0 .869-.388.869-.869 0-.48-.389-.869-.869-.869-.061 0-.122.006-.18.018 0-.003 0-.006 0-.001 0-.799-.648-1.447-1.447-1.447-.675 0-1.244.462-1.403 1.088-.074-.017-.151-.025-.229-.025-.583 0-1.057.473-1.057 1.057 0 .584.474 1.057 1.057 1.057"/><path opacity=".2" d="m179.94 51.828h8.565c.639 0 1.156-.517 1.156-1.155 0-.639-.518-1.158-1.156-1.158-.021 0-.04.004-.06.004.078-.203.121-.421.121-.651 0-.995-.807-1.803-1.802-1.803-.275 0-.534.062-.768.171-.385-1.271-1.565-2.197-2.962-2.197-1.709 0-3.094 1.384-3.094 3.094 0 .029.002.059.003.088 0 0-.0001 0-.003 0-.996 0-1.803.807-1.803 1.803 0 .996.807 1.804 1.803 1.804"/></g><path opacity=".2" d="m192.47 55.54l-4.3 4.305-1.55 1.555h3.1 6.07.03v-2.508l-.03-.031z"/><path opacity=".2" d="m175.4 51.681l-8.66 8.659v1.06h9.52 8.86l-4.43-4.434z"/><g fill="#fff"><path opacity=".55" d="m198.63 36.02h-31.01v-1.89h32.83v28.14h-1.82z"/><path opacity=".25" d="m201.44 33.1h-31.01v-1.89h32.83v28.14h-1.82z"/></g><g opacity=".75"><path opacity=".3" fill="#231f20" d="m183.87 90.46h11.664v9.879h-11.664z"/></g><g fill="#fff"><path opacity=".5" d="m180.25 81.932v36.603h26.1v-36.603h-26.1m3.628 8.529h11.664v9.879h-11.664v-9.879m18.841 23.512h-18.841v-.791h18.841v.791m0-2.272h-18.841v-.791h18.841v.791m0-2.273h-18.841v-.791h18.841v.791m0-2.272h-18.841v-.791h18.841v.791m0-2.272h-18.841v-.791h18.841v.791m0-2.272h-18.841v-.791h18.841v.791m0-2.272h-5.584v-.791h5.584v.791m0-2.272h-5.584v-.791h5.584v.791m0-2.272h-5.584v-.791h5.584v.791m0-2.272h-5.584v-.791h5.584v.791m0-2.272h-5.584v-.791h5.584v.791m0-2.667h-18.841v-2.272h18.841v2.272"/><path opacity=".4" d="m182.18 79.998v.964h25.13v35.638h.97v-36.602z"/><path opacity=".3" d="m184.11 78.07v.96h25.13v35.64h.97v-36.6z"/></g><path opacity=".3" d="m152.29 144v-21.771c0-.484-.392-.876-.876-.876h-66.04c-.484 0-.876.392-.876.876v21.771h67.796m-43.475-15.22c0-.703.569-1.272 1.272-1.272h16.61c.703 0 1.272.569 1.272 1.272v2.261c0 .703-.569 1.272-1.272 1.272h-16.61c-.703 0-1.272-.569-1.272-1.272v-2.261"/><path opacity=".4" fill="#fff" d="m71.73 79.57h-48.41c-.332 0-.601.269-.601.601v31.22c0 .332.269.601.601.601h48.41c.332 0 .601-.269.601-.601v-31.22c-.0001-.332-.27-.601-.602-.601m-28.16 30.25c-.551 0-.998-.447-.998-.998 0-.551.447-.998.998-.998.551 0 .998.447.998.998-.0001.552-.447.998-.998.998m3.991 0c-.551 0-.998-.447-.998-.998 0-.551.447-.998.998-.998.551 0 .998.447.998.998-.0001.552-.447.998-.998.998m3.99 0c-.551 0-.998-.447-.998-.998 0-.551.447-.998.998-.998.551 0 .998.447.998.998 0 .552-.447.998-.998.998m18.52-3.866h-45.09v-24.13h45.09v24.13z"/><path opacity=".3" d="m24.98 105.96h45.09v-24.13h-45.09v24.13m19.247-16.02c0-.217.227-.358.422-.262l7.909 3.893c.216.106.218.414.003.523l-7.909 4.02c-.195.099-.425-.043-.425-.261v-7.91"/><path opacity=".7" fill="#fff" d="m44.652 98.11l7.909-4.02c.215-.109.213-.417-.003-.523l-7.909-3.893c-.194-.096-.422.046-.422.262v7.91c0 .219.23.36.425.261"/><circle opacity=".1" cx="43.567" cy="108.83" r=".998"/><circle opacity=".1" cx="47.558" cy="108.83" r=".998"/><circle opacity=".1" cx="51.55" cy="108.83" r=".998"/><path fill="#fff" d="m128.71 93.59c-.736-.736-1.929-.736-2.665 0l-5.599 5.599v-15.69c0-1.041-.844-1.884-1.884-1.884-1.041 0-1.884.844-1.884 1.884v15.69l-5.599-5.599c-.736-.736-1.929-.736-2.665 0-.736.736-.736 1.929 0 2.665l8.815 8.815c.002.002.005.004.007.006.086.085.179.161.28.228.048.032.099.054.149.081.058.032.114.067.176.092.062.026.128.041.192.06.053.016.105.036.16.047.244.048.494.048.738 0 .055-.011.106-.032.159-.047.065-.019.13-.034.193-.06.062-.026.118-.061.177-.093.049-.027.1-.049.148-.08.101-.067.194-.144.28-.229.002-.002.005-.004.007-.006l8.815-8.815c.736-.735.736-1.928 0-2.664"/><g opacity=".25" fill="none" stroke="#fff" stroke-linecap="round" stroke-width="2" stroke-miterlimit="10"><path d="m69.848 57.32c.64.211 1.272.43 1.894.655"/><path stroke-dasharray="3.8406 4.8008" d="m76.19 59.779c24.265 10.897 33.486 33.616 34.674 53.05"/><path d="m110.97 115.22c.019.671.028 1.338.028 1.999"/></g><g fill="none" stroke="#fff" stroke-linecap="round" stroke-width="2" stroke-miterlimit="10"><g opacity=".25"><path d="m75.45 91.4c.675.07 1.336.153 1.984.25"/><path stroke-dasharray="3.6468 4.5585" d="m81.902 92.57c11.274 3.02 17.866 10.576 20.661 20.472"/><path d="m103.12 115.25c.142.646.269 1.301.381 1.964"/></g><g opacity=".25"><path d="m177.24 89.64c-.677 0-1.343.008-2 .023"/><path stroke-dasharray="4.15 5.1875" d="m170.06 89.95c-19.336 1.771-28.946 10.874-34.975 23.08"/><path d="m133.98 115.38c-.27.606-.532 1.218-.788 1.837"/></g><g opacity=".25"><path d="m160.72 58.724c-.583.331-1.159.668-1.727 1.01"/><path stroke-dasharray="3.9491 4.9363" d="m154.86 62.43c-16.739 11.776-25.904 29.361-28.765 50.35"/><path d="m125.79 115.23c-.074.66-.142 1.324-.203 1.99"/></g><g opacity=".25"><path d="m118.44 68.07v2"/><path stroke-dasharray="4.4047 5.5059" d="m118.44 75.58v36.89"/><path d="m118.44 115.22v2"/></g></g></svg>